<svg
  xmlns="http://www.w3.org/2000/svg"
  width="22px"
  height="22px"
  viewBox="0 0 22 22"
  role="img"
	aria-labelledby="title"
>
  <title>Instagram</title>
  <g stroke="none" stroke-width="1" fill="none" fill-rule="evenodd">
    <g transform="translate(-253.000000, -3074.000000)" fill="#FFFFFF">
      <g transform="translate(0.000000, 2464.000000)">
        <g transform="translate(27.000000, 610.000000)">
          <path d="M237.000022,0 C239.987421,0 240.362019,0.0126627249 241.535286,0.0661954863 C242.706108,0.119597254 243.505737,0.305564652 244.205418,0.577507587 C244.928765,0.858576416 245.542209,1.23470301 246.153775,1.8462253 C246.765297,2.45779125 247.141424,3.07123477 247.422536,3.79458202 C247.694435,4.49426307 247.880403,5.29389232 247.933805,6.46471407 C247.987337,7.63798103 248,8.01257937 248,11.0000218 C248,13.9874206 247.987337,14.362019 247.933805,15.5352859 C247.880403,16.7061077 247.694435,17.5057369 247.422536,18.205418 C247.141424,18.9287652 246.765297,19.5422088 246.153775,20.1537747 C245.542209,20.765297 244.928765,21.1414236 244.205418,21.4225361 C243.505737,21.6944353 242.706108,21.8804027 241.535286,21.9338045 C240.362019,21.9873373 239.987421,22 237.000022,22 C234.012579,22 233.637981,21.9873373 232.464714,21.9338045 C231.293892,21.8804027 230.494263,21.6944353 229.794582,21.4225361 C229.071235,21.1414236 228.457791,20.765297 227.846225,20.1537747 C227.234703,19.5422088 226.858576,18.9287652 226.577508,18.205418 C226.305565,17.5057369 226.119597,16.7061077 226.066195,15.5352859 C226.012663,14.362019 226,13.9874206 226,11.0000218 C226,8.01257937 226.012663,7.63798103 226.066195,6.46471407 C226.119597,5.29389232 226.305565,4.49426307 226.577508,3.79458202 C226.858576,3.07123477 227.234703,2.45779125 227.846225,1.8462253 C228.457791,1.23470301 229.071235,0.858576416 229.794582,0.577507587 C230.494263,0.305564652 231.293892,0.119597254 232.464714,0.0661954863 C233.637981,0.0126627249 234.012579,0 237.000022,0 Z M237.000022,1.98197844 C234.062881,1.98197844 233.714962,1.99320024 232.555056,2.04612169 C231.482567,2.09502601 230.900125,2.2742254 230.512515,2.42486816 C229.999063,2.62441524 229.63263,2.86278012 229.247727,3.24772696 C228.86278,3.63263014 228.624415,3.9990632 228.424868,4.51251486 C228.274225,4.90012524 228.095026,5.48256692 228.046122,6.55505606 C227.9932,7.71496166 227.981978,8.06288095 227.981978,11.0000218 C227.981978,13.9371191 227.9932,14.2850383 228.046122,15.4449439 C228.095026,16.5174331 228.274225,17.0998748 228.424868,17.4874851 C228.624415,18.0009368 228.862824,18.3673699 229.247727,18.752273 C229.63263,19.1372199 229.999063,19.3755848 230.512515,19.5751318 C230.900125,19.7257746 231.482567,19.904974 232.555056,19.9538783 C233.714831,20.0067998 234.062663,20.0180216 237.000022,20.0180216 C239.937337,20.0180216 240.285213,20.0067998 241.444944,19.9538783 C242.517433,19.904974 243.099875,19.7257746 243.487485,19.5751318 C244.000937,19.3755848 244.36737,19.1372199 244.752273,18.752273 C245.13722,18.3673699 245.375585,18.0009368 245.575132,17.4874851 C245.725775,17.0998748 245.904974,16.5174331 245.953878,15.4449439 C246.0068,14.2850383 246.018022,13.9371191 246.018022,11.0000218 C246.018022,8.06288095 246.0068,7.71496166 245.953878,6.55505606 C245.904974,5.48256692 245.725775,4.90012524 245.575132,4.51251486 C245.375585,3.9990632 245.13722,3.63263014 244.752273,3.24772696 C244.36737,2.86278012 244.000937,2.62441524 243.487485,2.42486816 C243.099875,2.2742254 242.517433,2.09502601 241.444944,2.04612169 C240.285038,1.99320024 239.937119,1.98197844 237.000022,1.98197844 Z M237.000022,5.35135489 C240.119681,5.35135489 242.648645,7.88031939 242.648645,11.0000218 C242.648645,14.1196806 240.119681,16.6486451 237.000022,16.6486451 C233.880319,16.6486451 231.351355,14.1196806 231.351355,11.0000218 C231.351355,7.88031939 233.880319,5.35135489 237.000022,5.35135489 Z M237.000022,14.6666667 C239.025054,14.6666667 240.666667,13.0250535 240.666667,11.0000218 C240.666667,8.97494646 239.025054,7.33333333 237.000022,7.33333333 C234.974946,7.33333333 233.333333,8.97494646 233.333333,11.0000218 C233.333333,13.0250535 234.974946,14.6666667 237.000022,14.6666667 Z M244.191838,5.12818528 C244.191838,5.85720892 243.600838,6.44816519 242.871815,6.44816519 C242.142835,6.44816519 241.551835,5.85720892 241.551835,5.12818528 C241.551835,4.39916164 242.142835,3.8081617 242.871815,3.8081617 C243.600838,3.8081617 244.191838,4.39916164 244.191838,5.12818528 Z"></path>
        </g>
      </g>
    </g>
  </g>
</svg>