<svg
  xmlns="http://www.w3.org/2000/svg"
  width="20px"
  height="19px"
  viewBox="0 0 20 19"
  role="img"
	aria-labelledby="title"
>
  <title>LinkedIn</title>
  <g stroke="none" stroke-width="1" fill="none" fill-rule="evenodd">
    <g transform="translate(-328.000000, -3076.000000)" fill="#FFFFFF">
      <g transform="translate(0.000000, 2464.000000)">
        <g transform="translate(27.000000, 610.000000)">
          <path d="M321,21 L316.652402,21 L316.652402,14.3367566 C316.652402,12.5926617 315.972331,11.4020166 314.476868,11.4020166 C313.333007,11.4020166 312.696886,12.2054897 312.400801,12.9798338 C312.289769,13.2577724 312.307117,13.6449444 312.307117,14.0321165 L312.307117,21 L308,21 C308,21 308.055516,9.19671366 308,8.12379796 L312.307117,8.12379796 L312.307117,10.1446177 C312.561566,9.26104005 313.9379,8 316.134253,8 C318.859164,8 321,9.85211465 321,13.840351 L321,21 L321,21 Z M303.487575,6 L303.457753,6 C301.9667,6 301,5.11871774 301,4.00162999 C301,2.86280902 301.995278,2 303.516153,2 C305.035785,2 305.970179,2.8606357 306,3.99837001 C306,5.11545776 305.035785,6 303.487575,6 L303.487575,6 L303.487575,6 Z M302,8 L306,8 L306,21 L302,21 L302,8 L302,8 Z"></path>
        </g>
      </g>
    </g>
  </g>
</svg>