<svg
	viewBox="0 0 384 192"
	role="img"
	aria-labelledby="title"
>
	<title id="title">Brown University Logo</title>
	<g>
		<g>
			<g>
				<path fill="#FFC627" d="M39.339,25.604c0.209,0.342,0.479,0.783,0.864,1.418c1.005,1.663,2.561,7.928,4.57,10.004     c1.071-0.727,2.927-1.664,3.98-2.042c-0.244-0.406-1.372-2.334-2.625-3.974c-2.413-3.203-4.145-4.914-4.339-5.19     C41.138,25.812,40.029,25.846,39.339,25.604z"></path>
				<path fill="#FFC627" d="M57.444,33.946c0.479-3.279-0.613-8.723-1.257-10.085c-0.816-0.208-1.661-0.496-2.355-0.829     c-0.09,0.417-0.706,2.639-0.91,5.91c-0.11,1.753-0.064,4.42,0.259,5.004C54.219,33.842,55.956,33.807,57.444,33.946z"></path>
				<path fill="#FFC627" d="M73.055,53.264c0-9.864-7.729-17.596-17.6-17.596c-9.719,0-17.6,7.878-17.6,17.596     c0,0.465,0.104,1.408,0.258,2.36c5.063-1.174,11.775-0.986,14.758,1.378c4.827-2.754,11.783-2.927,16.879,0.042     c1.013-0.506,2.066-0.872,3.131-1.176C73.008,54.919,73.055,53.925,73.055,53.264z M51.603,47.262     c-0.055,1.131-1.017,1.999-2.149,1.943c-1.13-0.054-1.996-1.025-1.939-2.148l0.019-0.226c-0.175-0.268-1.095-0.566-2.464,0.264     c-0.687,0.422-1.457,0.132-0.263-0.902c1.267-1.101,2.47-1.739,3.531-1.872l0.033-0.008c1.788-0.124,4.111,0.242,5.197,0.684     c0.45,0.184-0.019,2.397-0.12,2.37c-0.369-0.082-1.174-0.421-1.849-0.268L51.603,47.262z M57.473,53.398     c-0.358,1.044-4.057,1.378-4.736,0.019c-0.268-0.539-0.64-1.929-0.139-1.642c0.822,0.478,3.798,0.14,4.36,0     c0.497-0.127,0.173-0.82,0.479-0.735C57.805,51.142,57.805,52.41,57.473,53.398z M66.175,47.611     c-0.93-0.766-2.147-1.101-2.613-0.766l0.017,0.158c0.097,1.127-0.734,2.118-1.861,2.22c-1.129,0.1-2.124-0.74-2.219-1.863v-0.088     c-0.736-0.232-1.908,0.173-2.069,0.11c-0.095-0.044-0.591-2.129,0.057-2.391c1.766-0.721,7.457-1.072,9.11,2.122     C66.789,47.501,66.669,48.015,66.175,47.611z"></path>
				<path fill="#FFC627" d="M67.245,25.409c-2.068,1.752-5.23,5.998-5.634,9.394c0.971,0.393,3.535,1.616,3.886,1.906     c2.545-2.509,2.028-5.275,3.022-7.413c0.431-0.923,0.847-1.65,1.088-2.065C68.782,26.783,67.893,26.145,67.245,25.409z"></path>
				<path fill="#FFFFFF" d="M21.983,86.106c-2.636,0.078-5.215,1.116-6.729,0.852v17.65c0,0,0.955,0.726,3.6-0.026     c3.422-0.973,4.946,0.096,4.946,0.096V86.871C23.801,86.871,23.402,86.062,21.983,86.106z"></path>
				<path fill="#DCDDDE" d="M46.235,78.265H3.878v38.386h42.357V78.265z M39.789,108.813h-12.13v1.523h-5.027v-1.523H10.499V88.317     h2.588v-3.73c2.63,0.635,6.923-0.814,8.839-0.81c2.138,0.005,3.224,0.926,3.224,0.926s1.1-0.926,3.216-0.926     c1.916,0,6.205,1.432,8.835,0.81v3.73h2.589V108.813z"></path>
				<path fill="#FFFFFF" d="M88.907,86.106c-1.417-0.044-1.823,0.765-1.823,0.765v17.807c0,0,1.523-1.069,4.949-0.096     c2.645,0.752,3.602,0.026,3.602,0.026v-17.65C94.121,87.222,91.541,86.184,88.907,86.106z"></path>
				<path fill="#FFFFFF" d="M28.3,86.106c-1.414-0.044-1.817,0.765-1.817,0.765v17.807c0,0,1.528-1.069,4.95-0.096     c2.644,0.752,3.6,0.026,3.6,0.026v-17.65C33.519,87.222,30.939,86.184,28.3,86.106z"></path>
				<path fill="#FFC627" d="M79.588,32.133c-0.459,0.251-1.53,0.909-1.891,1.179c-2.444,1.841-7.741,4.313-8.961,5.668     c0.973,0.862,2.41,2.41,3.059,3.706c0.596,0.027,2.306-1.365,5.695-5.354c1.088-1.274,2.244-1.948,4.34-3.113     C80.967,33.603,80.221,32.884,79.588,32.133z"></path>
				<path fill="#FFFFFF" d="M87.419,142.197v17.807c0,0,1.522-1.065,4.944-0.087c2.646,0.755,3.597,0.026,3.597,0.026v-17.651     c-1.516,0.263-4.089-0.775-6.724-0.858C87.813,141.387,87.419,142.197,87.419,142.197z"></path>
				<path fill="#FFFFFF" d="M76.189,142.292v17.651c0,0,0.953,0.729,3.595-0.026c3.424-0.979,4.952,0.087,4.952,0.087v-17.807     c0,0-0.403-0.81-1.822-0.763C80.278,141.518,77.7,142.556,76.189,142.292z"></path>
				<path fill="#FFFFFF" d="M82.588,86.106c-2.635,0.078-5.217,1.116-6.732,0.852v17.65c0,0,0.957,0.726,3.604-0.026     c3.415-0.973,4.943,0.096,4.943,0.096V86.871C84.402,86.871,84.008,86.062,82.588,86.106z"></path>
				<path fill="#DCDDDE" d="M107.043,78.265H64.7v38.386h42.343V78.265z M100.719,108.813H88.592v1.523h-5.029v-1.523H71.435V88.317     h2.581v-3.73c2.632,0.635,6.925-0.814,8.84-0.81c2.14,0.005,3.22,0.926,3.22,0.926s1.104-0.926,3.22-0.926     c1.918,0,6.206,1.432,8.84,0.81v3.73h2.584V108.813z"></path>
				<path fill="#FFFFFF" d="M11.328,56.446c-3.242-0.069-5.941,0.846-6.894,2.509c-1.753,3.063,0.308,5.706,1.54,6.445     c2.817,1.694,5.504,0.588,5.703-0.454c-0.77-0.868-2.098-2.83-2.842-2.847c-1.083-0.028-0.996-1.432-0.209-1.688     c1.883-0.623,3.713,2.951,6.418,4.883c2.41,1.725,5.788,0.461,5.788-0.246C19.358,63.713,17.598,56.587,11.328,56.446z"></path>
				<path fill="#FFFFFF" d="M49.789,57.716c-3.712-1.75-8.951-1.166-13.356,0.399c1.22,1.626,3.25,5.426,4.297,6.707     c2.026,2.465,5.49,1.22,5.633,0.475c-0.241-0.454-2.103-2.86-2.803-3.262c-0.654-0.375-1.034-0.971-0.667-1.491     c0.614-0.863,2.059,0,2.844,0.945c0.782,0.952,2.979,3.706,3.702,4.195c2.169,1.469,6.299,0.704,5.951-0.558     C53.97,63.25,53.351,59.391,49.789,57.716z"></path>
				<path fill="#FFC627" d="M41.796,39.415c-3.049-2.458-5.851-2.983-10.32-5.082c-1.012-0.476-2.712-1.621-2.799-1.668     c-0.122-0.086-0.345-0.227-0.619-0.393c-0.262,0.837-0.796,1.973-1.285,2.609c0.692,0.899,5.688,6.6,12.08,8.376     C39.554,42.033,40.681,40.623,41.796,39.415z"></path>
				<path fill="#FFC627" d="M36.915,46.86c-1.145-1.129-3.421-2.104-6.383-1.867c-6.063,0.476-10.054,0.086-12.345-0.237     c-3.922-0.563-6.358-0.013-8.318-0.013c-5.962,0,0.166,0.537,0.865,0.809c2.807,1.107,8.467,2.509,12.918,2.185     c2.175-0.152,5.814,1.172,6.441,1.389c1.601,0.571,4.495,1.503,6.06,1.474C36.238,49.884,36.608,47.755,36.915,46.86z"></path>
				<path fill="#FFFFFF" d="M75.816,64.874c2.241,2.271,5.3,1.297,5.441,0.553c-0.251-0.453-1.664-2.536-2.497-2.988     c-0.679-0.375-1.119-0.995-0.752-1.514c0.609-0.864,1.835-0.252,2.618,0.694c0.783,0.956,2.941,3.769,3.698,4.2     c1.966,1.087,6.297,0.696,5.947-0.567c-1.198-1.897-2.026-5.731-5.596-7.409c-3.707-1.748-8.459-1.293-12.86,0.278     C72.608,59.696,74.669,63.719,75.816,64.874z"></path>
				<path fill="#FFC627" d="M105.857,43.825c-0.302-0.048-1.438-0.199-2.167-0.196c-0.961,0.005-7.278,0.035-9.006,0.3     c-3.534,0.553-10.374,0.268-14.124,0.125c-2.802-0.109-6.028,0.984-7.013,1.512c0,0,1.079,2.698,1.149,4.532     c1.192,0.212,2.339-1.293,5.74-1.237c3.542,0.06,12.262-0.416,16.674-2.133c3.295-1.276,6.063-1.917,8.304-2.371     C106.165,44.201,107.354,44.054,105.857,43.825z"></path>
				<path fill="#FFFFFF" d="M23.806,160.004v-17.807c0,0-0.402-0.81-1.817-0.763c-2.639,0.083-5.219,1.121-6.729,0.858v17.651     c0,0,0.952,0.729,3.596-0.026C22.277,158.938,23.806,160.004,23.806,160.004z"></path>
				<path fill="#FFFFFF" d="M26.886,26.19c0.283-0.24,0.673-0.21,1.027-0.095c2.989,0.965,7.275,0.309,9.273-2.855     c0.28-0.442,0.834-0.598,1.316-0.402c2.065,0.837,6.298,1.224,11.451-4.007c0.388-0.394,1.014-0.344,1.443,0.004     c4.526,3.633,9.245,3.86,14.027,0.678c0.297-0.197,0.675-0.453,1.003-0.319c0.331,0.134,0.575,0.424,0.648,0.772     c1.528,7.067,8.903,6.441,11.125,6.083c0.286-0.046,0.578,0.024,0.812,0.194c0.233,0.171,0.388,0.429,0.428,0.717     c0.241,1.653,2.073,4.858,5.246,6.494c2.712,1.395,5.666,1.288,8.786-0.32c0.312-0.162,0.685-0.16,1,0.006     c4.002,2.139,7.605,2.265,9.881,0.348c1.604-1.352,2.255-3.554,1.617-5.481c-0.711-2.147-2.847-3.482-5.855-3.665     c-0.505-0.032-0.921-0.41-0.998-0.91c-0.27-1.713-1.227-3.115-2.771-4.056c-2.354-1.435-5.816-1.604-9.263-0.452     c-0.303,0.099-0.637,0.063-0.908-0.106c-0.272-0.169-0.454-0.448-0.5-0.767c-0.189-1.324-0.763-3.117-2.422-4.131     c-1.749-1.069-4.391-1.043-7.64,0.076c-0.505,0.172-1.062-0.048-1.308-0.521c-2.09-4.004-5.025-6.604-8.487-7.522     c-3.1-0.822-6.545-0.225-9.452,1.642c-0.379,0.246-0.87,0.229-1.232-0.043c-2.927-2.196-6.426-2.896-9.604-1.923     c-3.097,0.945-5.455,3.362-6.645,6.804c-0.098,0.279-0.303,0.507-0.57,0.628c-0.27,0.123-0.576,0.129-0.852,0.02     c-4.742-1.904-8.614-1.856-11.198,0.141c-2.22,1.715-2.905,4.417-2.805,5.205c0.07,0.545-0.258,1.049-0.793,1.179l-1.134,0.272     c-2.628,0.6-5.348,1.222-6.167,5.404c-0.091,0.465-0.479,0.818-0.952,0.866c-4.569,0.456-7.556,2.148-8.187,4.645     c-0.444,1.759,0.372,3.752,1.988,4.844c1.625,1.101,3.582,0.987,5.374-0.314c0.293-0.214,0.679-0.266,1.019-0.135     c2.684,1.026,7.035,0.823,9.674-1.292c1.914-1.534,2.664-3.797,2.232-6.725C26.46,26.8,26.599,26.43,26.886,26.19z      M99.276,26.491c2.711-0.628,5.967,1.354,5.043,4.997c-0.157,0.623-1.688,0.662-1.635,0.026c0.234-3.05-1.273-3.297-3.281-3.275     C98.644,28.257,98.702,26.616,99.276,26.491z M87.667,21.078c2.637-1.506,8.029-1.238,9.707,3.574     c0.287,0.818-0.798,2.208-1.474,0.969c-2.027-3.725-5.303-3.717-8.037-2.673C87.249,23.189,86.696,21.631,87.667,21.078z      M76.333,15.53c2.446-0.865,6.613-1.25,7.725,2.839c0.319,1.143-1.085,1.688-1.397,0.887c-1.136-2.96-3.272-2.843-5.824-2.029     C75.66,17.612,75.945,15.665,76.333,15.53z M56.339,10.927c1.763-2.869,10.985-5.539,15.717,2.575     c0.502,0.883-0.169,1.397-0.698,1.761c-0.376,0.268-0.599-0.341-0.847-0.74c-4.016-6.353-11.281-4.677-13.232-1.73     C56.882,13.389,55.825,11.771,56.339,10.927z M41.477,11.387c1.62-2.566,7.178-6.516,12.104-2.168     c0.554,0.481-0.105,2.268-0.723,1.854c-4.505-3.098-8.048-0.611-9.926,1.63C42.03,13.767,41.092,12.006,41.477,11.387z      M14.882,29.34c-1.885,0-3.397,0.039-4.723,1.48c-1.417,1.536-1.073,2.379-1.337,2.658c-0.388,0.38-1.359-0.291-1.342-1.052     c0.083-3.614,4.447-5.024,7.036-4.734C15.502,27.808,15.758,29.34,14.882,29.34z M22.549,23.273     c-2.756,0.303-3.563,1.649-4.055,3.193c-0.2,0.58-1.747,0.165-1.503-0.978c0.731-3.396,4.415-4.227,5.753-3.937     C23.194,21.638,23.056,23.226,22.549,23.273z M24.908,19.613c0.566-2.999,3.497-7.365,10.193-5.665     c0.822,0.208,0.338,2.293-0.545,1.943c-4.889-1.917-7.343,1.792-8.135,4.716C26.313,21.006,24.676,20.855,24.908,19.613z"></path>
				<path fill="#DCDDDE" d="M64.7,185.281c10.674-3.089,21.248-7.217,28.406-13.765c2.534-2.315,4.638-4.735,6.399-7.373H88.591     v1.524h-5.025v-1.524H71.43v-20.5h2.593v-3.731c2.626,0.636,6.919-0.809,8.836-0.809c2.138,0.005,3.219,0.932,3.219,0.932     s1.103-0.932,3.216-0.932c1.921,0,6.209,1.436,8.84,0.809v3.731h2.592v18.54c3.897-6.743,5.688-14.996,6.318-26.594v-1.729H64.7     V185.281z"></path>
				<path fill="#FFFFFF" d="M31.434,159.917c2.644,0.755,3.602,0.026,3.602,0.026v-17.651c-1.515,0.263-4.095-0.775-6.734-0.858     c-1.414-0.047-1.817,0.763-1.817,0.763v17.807C26.483,160.004,28.011,158.938,31.434,159.917z"></path>
				<path fill="#DCDDDE" d="M3.962,135.486c0.423,10.608,2.415,19.261,6.538,26.487v-18.331h2.592v-3.731     c2.627,0.636,6.919-0.809,8.836-0.809c2.139,0.005,3.224,0.932,3.224,0.932s1.099-0.932,3.216-0.932     c1.916,0,6.204,1.436,8.834,0.809v3.731h2.588v20.5H27.656v1.524h-5.022v-1.524H11.826c1.729,2.617,3.771,5.043,6.175,7.295     c6.746,6.323,17.331,10.614,28.229,13.807v-51.386H3.878L3.962,135.486z"></path>
			</g>
			<g>
				<g>
					<path fill="#231F20" d="M111.737,42.726c-0.637-0.467-7.386-1.298-8.438-1.298c-1.025,0-6.854,0.052-9.104,0.393      c-3.5,0.521-9.469,0.521-14.004,0c-1.641-0.191-3.456,0.208-4.941,0.689c0.292-0.245,0.605-0.53,0.981-0.917      c1.338-1.376,2.837-3.99,5.495-5.292c0.673-0.333,1.301-0.673,1.911-1.015c2.232,1.116,5.75,1.874,10.123-0.184      c6.526,3.258,10.417,1.054,11.793-0.106c1.685-1.418,2.623-3.513,2.623-5.623c0-0.735-0.112-1.474-0.351-2.185      c-0.938-2.836-3.526-4.604-7.08-5.02c-0.202-0.757-0.525-1.458-0.912-2.123c0.413-0.526,0.805-1.021,1.06-1.321      c0.309-0.39,1.381-2.168-1.489-0.685c-0.148,0.076-0.422,0.228-0.774,0.426c-0.401-0.397-0.844-0.763-1.352-1.072      c-2.676-1.632-6.294-1.831-10.02-0.835c-0.523-1.986-1.505-3.663-3.07-4.619c-1.64-1.005-3.706-1.294-6.141-0.922      c0.151-0.356,0.29-0.672,0.406-0.921c1.083-2.268,0.499-2.835-0.639-1.83c-1.282,1.138-2.093,1.948-2.71,2.603      c-2.303-3.696-5.337-6.193-8.921-7.142c-3.11-0.824-6.469-0.387-9.498,1.078c-0.181-1.523-0.38-2.775-0.6-3.496      c-0.564-1.84-1.237-0.395-1.344,0.173c-0.125,0.767-0.3,1.823-0.5,3.046c-3.027-1.617-6.39-2.064-9.534-1.101      c-3.456,1.057-6.089,3.631-7.606,7.208c-1.256-0.446-2.391-0.717-3.46-0.905c-0.633-0.83-1.571-1.884-2.881-3.031      c-0.883-0.783-1.612-0.376-1.083,1.168c0.207,0.598,0.388,1.127,0.555,1.627c-2.466,0.136-4.265,0.945-5.476,1.88      c-2.394,1.849-3.369,4.498-3.563,6.178c-0.141,0.035-0.329,0.081-0.329,0.081c-2.008,0.461-4.718,1.215-6.417,3.894      c-0.301-0.186-0.52-0.322-0.611-0.381c-5.062-3.361-2.728,0.963-0.77,2.87c-6.732,0.952-8.632,4.186-9.118,6.108      c-0.125,0.487-0.185,0.988-0.185,1.487c0,2.183,1.139,4.373,3.053,5.671c2.251,1.523,4.98,1.43,7.407-0.123      c3.171,1.021,7.647,0.856,10.86-1.48c1.854,1.997,3.351,3.414,4.161,4.221c2.019,2.008,4.979,3.537,6.493,4.111      c-1.498-0.58-3.99-1.203-6.483-0.857c-5.381,0.75-8.953-0.225-11.257-0.454c-3.797-0.376-7.701,0.277-9.645,0.277      c-2.059,0-4.966,0.969-6.384,1.177c-1.531,0.23-1.432,1.242,0.7,1.809c2.11,0.571,6.065,0.922,7.138,1.38      c3.437,1.493,9.185,2.739,13.236,2.414c2.876-0.22,5.771,1.182,6.515,1.402c1.426,0.437,4.96,1.402,6.413,1.376      c0-0.087,0,2.042,0.149,3.048c-0.55,0.182-1.077,0.374-1.549,0.59c-1.609-0.977-8.672-3.841-17.273-0.276      c-1.818-0.629-5.665-2.751-10.935-1.017c-6.508,2.148-5.452,8.107-3.306,10.836c2.903,3.693,8.273,2.945,9.835,1.087      c3.495,2.322,7.063,1.536,9.649-0.07c1.7,1,10.068,2.659,16.43,0.07c0.869,0.647,4.361,2.47,8.844,0.211      c2.587,1.537,6.867,1.655,9.063-0.281c0.797,0.677,3.186,1.647,8.273,1.588c6.11-0.073,7.528-0.984,8.386-1.729      c1.316,0.61,4.747,2.404,8.991,0.593c2.29,1.44,6.872,1.356,9.329-0.255c4.491,2.042,12.729,1.118,14.79-0.303      c3.688-2.557,1.904-7.769-2.155-10.242c-7.982-4.023-15.413-0.902-17.386,0.111c-2.351-1.587-7.27-2.604-12.377-1.657      c0.079-0.608-0.01-1.302-0.01-2.077c0-0.083-0.013-0.16-0.015-0.242c1.012-0.308,2.452-1.397,5.381-1.581      c3.987-0.269,13.393-0.143,18.095-2.553c2.685-1.372,12.021-3.202,13.266-3.929C112.734,43.721,112.395,43.175,111.737,42.726z       M77.49,37.332c-3.39,3.99-5.1,5.381-5.695,5.354c-0.648-1.296-2.086-2.843-3.059-3.706c1.22-1.355,6.517-3.827,8.961-5.668      c0.36-0.271,1.432-0.928,1.891-1.179c0.633,0.75,1.379,1.469,2.242,2.085C79.734,35.384,78.578,36.058,77.49,37.332z       M28.645,28.671c2.848,0.45,6.165-0.216,8.577-2.386c2.963,4.73,3.039,9.013,5.898,11.964c-3.609-3.492-6.757-3.424-11.92-6.209      c-0.891-0.48-2.221-1.345-2.597-1.536c-0.005-0.005-0.016-0.009-0.023-0.013c0.06-0.435,0.097-0.888,0.097-1.374      C28.677,28.979,28.647,28.816,28.645,28.671z M50.643,33.957l0.076,0.162c0,0-1.572-2.358-1.762-2.659      c-0.537-0.822-1.237-1.653-2.021-2.618c-1.23-1.488-2.312-2.698-3.145-3.6c2.058-0.503,4.409-1.679,6.942-4.065      c0.269,0.196,0.542,0.344,0.814,0.517c-0.139,0.812-0.266,1.545-0.363,2.078c-0.584,3.188-0.626,5.638-0.667,6.689      C50.475,31.458,50.572,33.031,50.643,33.957z M46.129,31.011c1.253,1.639,2.381,3.567,2.625,3.974      c-1.054,0.378-2.909,1.315-3.98,2.042c-2.01-2.077-3.565-8.342-4.57-10.004c-0.385-0.635-0.655-1.077-0.864-1.418      c0.69,0.242,1.799,0.208,2.451,0.217C41.984,26.097,43.716,27.808,46.129,31.011z M55.455,35.668      c9.871,0,17.6,7.732,17.6,17.596c0,0.661-0.047,1.655-0.174,2.603c-1.064,0.305-2.118,0.67-3.131,1.176      c-5.096-2.968-12.052-2.795-16.879-0.042c-2.982-2.364-9.695-2.552-14.758-1.378c-0.153-0.952-0.258-1.895-0.258-2.36      C37.855,43.546,45.736,35.668,55.455,35.668z M52.922,28.942c0.204-3.271,0.82-5.493,0.91-5.91      c0.694,0.333,1.539,0.621,2.355,0.829c0.644,1.362,1.735,6.806,1.257,10.085c-1.488-0.139-3.226-0.104-4.264,0      C52.857,33.362,52.812,30.695,52.922,28.942z M68.52,29.296c-0.994,2.138-0.478,4.903-3.022,7.413      c-0.351-0.29-2.915-1.513-3.886-1.906c0.403-3.396,3.565-7.642,5.634-9.394c0.647,0.735,1.537,1.374,2.362,1.822      C69.366,27.646,68.95,28.373,68.52,29.296z M71.213,28.613c0.083-0.142,0.178-0.327,0.277-0.525      c1.895,0.629,3.974,0.796,6.014,0.571c0.206,0.668,0.527,1.38,0.938,2.097c-0.01,0.001-0.028,0.015-0.034,0.017      c-1.009,0.48-4.069,2.575-8.543,5.066c-1.157,0.641-1.87,1.257-2.279,1.68c0.492-0.663,1.094-1.538,1.473-2.506      C69.845,32.997,69.636,31.378,71.213,28.613z M60.39,31.192c-0.485,1.227-0.675,1.874-0.857,2.563      c0.379-2.637-0.337-6.494-1.104-9.826c2.301,0.048,4.63-0.556,6.942-1.867c0.18,0.521,0.418,0.976,0.653,1.43      C64.719,24.682,61.601,28.104,60.39,31.192z M24.283,33.895c-2.639,2.116-6.99,2.318-9.674,1.292      c-0.34-0.131-0.726-0.079-1.019,0.135c-1.792,1.301-3.749,1.415-5.374,0.314c-1.616-1.092-2.433-3.085-1.988-4.844      c0.631-2.496,3.617-4.188,8.187-4.645c0.474-0.047,0.861-0.4,0.952-0.866c0.819-4.182,3.539-4.805,6.167-5.404l1.134-0.272      c0.535-0.13,0.863-0.634,0.793-1.179c-0.101-0.788,0.585-3.49,2.805-5.205c2.584-1.997,6.456-2.045,11.198-0.141      c0.275,0.11,0.582,0.104,0.852-0.02c0.268-0.121,0.473-0.349,0.57-0.628c1.189-3.442,3.548-5.858,6.645-6.804      c3.179-0.974,6.678-0.273,9.604,1.923c0.362,0.271,0.854,0.289,1.232,0.043c2.907-1.866,6.353-2.464,9.452-1.642      c3.462,0.917,6.397,3.518,8.487,7.522c0.246,0.472,0.803,0.693,1.308,0.521c3.249-1.119,5.891-1.145,7.64-0.076      c1.659,1.014,2.232,2.808,2.422,4.131c0.046,0.318,0.228,0.597,0.5,0.767c0.271,0.168,0.605,0.205,0.908,0.106      c3.446-1.152,6.908-0.983,9.263,0.452c1.544,0.94,2.501,2.342,2.771,4.056c0.077,0.5,0.493,0.878,0.998,0.91      c3.009,0.183,5.145,1.518,5.855,3.665c0.638,1.927-0.014,4.129-1.617,5.481c-2.275,1.917-5.879,1.791-9.881-0.348      c-0.315-0.167-0.688-0.168-1-0.006c-3.12,1.607-6.074,1.715-8.786,0.32c-3.173-1.636-5.005-4.841-5.246-6.494      c-0.04-0.288-0.194-0.546-0.428-0.717c-0.233-0.17-0.525-0.24-0.812-0.194c-2.222,0.358-9.597,0.984-11.125-6.083      c-0.073-0.349-0.317-0.638-0.648-0.772c-0.328-0.134-0.706,0.122-1.003,0.319c-4.782,3.182-9.501,2.956-14.027-0.678      c-0.43-0.348-1.056-0.398-1.443-0.004c-5.153,5.231-9.386,4.844-11.451,4.007c-0.482-0.195-1.036-0.04-1.316,0.402      c-1.998,3.165-6.284,3.82-9.273,2.855c-0.354-0.115-0.744-0.145-1.027,0.095c-0.287,0.24-0.426,0.61-0.37,0.98      C26.947,30.097,26.197,32.36,24.283,33.895z M26.772,34.881c0.489-0.636,1.023-1.772,1.285-2.609      c0.274,0.167,0.497,0.307,0.619,0.393c0.087,0.047,1.787,1.192,2.799,1.668c4.47,2.099,7.271,2.624,10.32,5.082      c-1.115,1.208-2.242,2.618-2.943,3.842C32.461,41.481,27.465,35.78,26.772,34.881z M30.094,49.125      c-0.627-0.217-4.267-1.541-6.441-1.389c-4.451,0.324-10.111-1.078-12.918-2.185c-0.699-0.272-6.827-0.809-0.865-0.809      c1.96,0,4.396-0.55,8.318,0.013c2.291,0.324,6.282,0.713,12.345,0.237c2.962-0.237,5.238,0.738,6.383,1.867      c-0.307,0.896-0.677,3.024-0.762,3.739C34.589,50.628,31.694,49.697,30.094,49.125z M15.045,65.294      c-2.705-1.932-4.535-5.505-6.418-4.883c-0.787,0.256-0.874,1.66,0.209,1.688c0.744,0.018,2.072,1.979,2.842,2.847      c-0.199,1.042-2.886,2.148-5.703,0.454c-1.232-0.74-3.293-3.382-1.54-6.445c0.952-1.663,3.651-2.579,6.894-2.509      c6.27,0.141,8.03,7.267,9.505,8.602C20.833,65.756,17.455,67.02,15.045,65.294z M24.144,65.198      c-2.366-1.05-4.24-6.501-4.937-7.198c-0.277-0.276,4.188-1.897,8.728-1.505c7.727,0.657,7.748,5.458,9.653,7.854      C38.28,65.219,31.317,67.216,24.144,65.198z M49.438,65.684c-0.723-0.489-2.92-3.243-3.702-4.195      c-0.785-0.945-2.229-1.809-2.844-0.945c-0.367,0.52,0.013,1.116,0.667,1.491c0.7,0.402,2.562,2.808,2.803,3.262      c-0.143,0.745-3.606,1.99-5.633-0.475c-1.047-1.281-3.077-5.081-4.297-6.707c4.405-1.564,9.645-2.148,13.356-0.399      c3.562,1.675,4.181,5.534,5.601,7.411C55.737,66.388,51.607,67.153,49.438,65.684z M59.146,65.591      c-2.361-1.054-4.241-6.505-4.939-7.202c-0.28-0.277,4.191-1.889,8.731-1.501c7.732,0.655,7.753,5.458,9.652,7.848      C73.287,65.613,66.326,67.614,59.146,65.591z M97.8,56.628c7.729,0.655,9.567,5.744,8.799,7.394      c-0.677,1.45-5.41,3.333-12.585,1.31c-2.366-1.055-4.244-6.506-4.936-7.203C88.797,57.853,93.262,56.241,97.8,56.628z       M84.677,57.843c3.569,1.677,4.397,5.511,5.596,7.409c0.35,1.263-3.981,1.654-5.947,0.567c-0.757-0.431-2.915-3.244-3.698-4.2      c-0.783-0.946-2.009-1.558-2.618-0.694c-0.367,0.519,0.073,1.14,0.752,1.514c0.833,0.452,2.246,2.535,2.497,2.988      c-0.142,0.744-3.2,1.718-5.441-0.553c-1.147-1.155-3.208-5.178-4-6.753C76.218,56.55,80.97,56.095,84.677,57.843z       M105.415,44.357c-2.241,0.454-5.009,1.095-8.304,2.371c-4.412,1.718-13.132,2.193-16.674,2.133      c-3.401-0.056-4.548,1.449-5.74,1.237c-0.07-1.834-1.149-4.532-1.149-4.532c0.984-0.528,4.211-1.621,7.013-1.512      c3.75,0.143,10.59,0.428,14.124-0.125c1.728-0.265,8.045-0.295,9.006-0.3c0.729-0.003,1.865,0.147,2.167,0.196      C107.354,44.054,106.165,44.201,105.415,44.357z"></path>
					<g>
						<path fill="#231F20" d="M14.882,29.34c-1.885,0-3.397,0.039-4.723,1.48c-1.417,1.536-1.073,2.379-1.337,2.658       c-0.388,0.38-1.359-0.291-1.342-1.052c0.083-3.614,4.447-5.024,7.036-4.734C15.502,27.808,15.758,29.34,14.882,29.34"></path>
						<path fill="#231F20" d="M22.549,23.273c-2.756,0.303-3.563,1.649-4.055,3.193c-0.2,0.58-1.747,0.165-1.503-0.978       c0.731-3.396,4.415-4.227,5.753-3.937C23.194,21.638,23.056,23.226,22.549,23.273"></path>
						<path fill="#231F20" d="M34.557,15.892c-4.889-1.917-7.343,1.792-8.135,4.716c-0.108,0.398-1.746,0.248-1.514-0.995       c0.566-2.999,3.497-7.365,10.193-5.665C35.924,14.156,35.439,16.242,34.557,15.892"></path>
						<path fill="#231F20" d="M52.857,11.072c-4.505-3.098-8.048-0.611-9.926,1.63c-0.901,1.064-1.84-0.696-1.455-1.315       c1.62-2.566,7.178-6.516,12.104-2.168C54.134,9.7,53.475,11.487,52.857,11.072"></path>
						<path fill="#231F20" d="M71.357,15.262c-0.376,0.268-0.599-0.341-0.847-0.74c-4.016-6.353-11.281-4.677-13.232-1.73       c-0.396,0.597-1.453-1.021-0.939-1.865c1.763-2.869,10.985-5.539,15.717,2.575C72.558,14.384,71.887,14.898,71.357,15.262"></path>
						<path fill="#231F20" d="M82.66,19.256c-1.136-2.96-3.272-2.843-5.824-2.029c-1.176,0.385-0.891-1.563-0.503-1.697       c2.446-0.865,6.613-1.25,7.725,2.839C84.377,19.512,82.973,20.057,82.66,19.256"></path>
						<path fill="#231F20" d="M95.9,25.621c-2.027-3.725-5.303-3.717-8.037-2.673c-0.614,0.242-1.167-1.316-0.196-1.87       c2.637-1.506,8.029-1.238,9.707,3.574C97.661,25.469,96.576,26.859,95.9,25.621"></path>
						<path fill="#231F20" d="M104.319,31.488c-0.157,0.623-1.688,0.662-1.635,0.026c0.234-3.05-1.273-3.297-3.281-3.275       c-0.76,0.018-0.701-1.623-0.127-1.748C101.987,25.863,105.243,27.845,104.319,31.488"></path>
					</g>
					<g>
						<path fill="#231F20" d="M51.603,47.262c-0.055,1.131-1.017,1.999-2.149,1.943c-1.13-0.054-1.996-1.025-1.939-2.148l0.019-0.226       c-0.175-0.268-1.095-0.566-2.464,0.264c-0.687,0.422-1.457,0.132-0.263-0.902c1.267-1.101,2.47-1.739,3.531-1.872l0.033-0.008       c1.788-0.124,4.111,0.242,5.197,0.684c0.45,0.184-0.019,2.397-0.12,2.37c-0.369-0.082-1.174-0.421-1.849-0.268L51.603,47.262"></path>
						<path fill="#231F20" d="M57.473,53.398c-0.358,1.044-4.057,1.378-4.736,0.019c-0.268-0.539-0.64-1.929-0.139-1.642       c0.822,0.478,3.798,0.14,4.36,0c0.497-0.127,0.173-0.82,0.479-0.735C57.805,51.142,57.805,52.41,57.473,53.398"></path>
						<path fill="#231F20" d="M66.175,47.611c-0.93-0.766-2.147-1.101-2.613-0.766l0.017,0.158c0.097,1.127-0.734,2.118-1.861,2.22       c-1.129,0.1-2.124-0.74-2.219-1.863v-0.088c-0.736-0.232-1.908,0.173-2.069,0.11c-0.095-0.044-0.591-2.129,0.057-2.391       c1.766-0.721,7.457-1.072,9.11,2.122C66.789,47.501,66.669,48.015,66.175,47.611"></path>
					</g>
				</g>
				<g>
					<path fill="#231F20" d="M64.7,78.265h42.343v38.386H64.7V78.265z M3.878,78.265h42.357v38.386H3.878V78.265z M46.23,185.245      c-10.898-3.192-21.483-7.483-28.229-13.807c-2.404-2.252-4.446-4.678-6.175-7.295h10.808v1.524h5.022v-1.524h12.133v-20.5      h-2.588v-3.731c-2.63,0.626-6.918-0.809-8.834-0.809c-2.117,0-3.216,0.932-3.216,0.932s-1.085-0.927-3.224-0.932      c-1.917,0-6.209,1.445-8.836,0.809v3.731H10.5v18.331c-4.123-7.227-6.115-15.879-6.538-26.487l-0.084-1.627H46.23V185.245z       M15.26,159.943v-17.651c1.51,0.263,4.09-0.775,6.729-0.858c1.415-0.047,1.817,0.763,1.817,0.763v17.807      c0,0-1.528-1.065-4.95-0.087C16.212,160.672,15.26,159.943,15.26,159.943z M26.483,160.004v-17.807c0,0,0.403-0.81,1.817-0.763      c2.64,0.083,5.22,1.121,6.734,0.858v17.651c0,0-0.958,0.729-3.602-0.026C28.011,158.938,26.483,160.004,26.483,160.004z       M62.487,185.948l-7.015,1.785l-7.031-1.813v-54.42H3.878v-12.493h44.563V78.265h14.046v40.744h44.556v12.493H62.487V185.948z       M100.725,162.183v-18.54h-2.592v-3.731c-2.631,0.626-6.919-0.809-8.84-0.809c-2.113,0-3.216,0.932-3.216,0.932      s-1.081-0.927-3.219-0.932c-1.917,0-6.21,1.445-8.836,0.809v3.731H71.43v20.5h12.136v1.524h5.025v-1.524h10.915      c-1.762,2.638-3.865,5.058-6.399,7.373c-7.158,6.548-17.732,10.676-28.406,13.765v-51.422h42.343v1.729      C106.412,147.187,104.622,155.439,100.725,162.183z M95.96,142.292v17.651c0,0-0.95,0.729-3.597-0.026      c-3.422-0.979-4.944,0.087-4.944,0.087v-17.807c0,0,0.395-0.81,1.817-0.763C91.871,141.518,94.444,142.556,95.96,142.292z       M84.736,142.197v17.807c0,0-1.528-1.065-4.952-0.087c-2.642,0.755-3.595,0.026-3.595,0.026v-17.651      c1.511,0.263,4.089-0.775,6.725-0.858C84.333,141.387,84.736,142.197,84.736,142.197z M1.283,75.678v56.805      c0,18.775,4.691,31.777,14.722,40.912c9.962,9.068,24.881,13.672,39.468,17.117c14.982-3.539,29.401-7.955,39.462-17.117      c10.034-9.135,14.696-22.137,14.696-40.912V75.678H1.283z"></path>
					<path fill="#231F20" d="M37.2,88.317v-3.73c-2.63,0.623-6.919-0.81-8.835-0.81c-2.116,0-3.216,0.926-3.216,0.926      s-1.086-0.921-3.224-0.926c-1.916-0.005-6.209,1.445-8.839,0.81v3.73h-2.588v20.497h12.133v1.523h5.027v-1.523h12.13V88.317      H37.2z M23.801,104.678c0,0-1.524-1.069-4.946-0.096c-2.645,0.752-3.6,0.026-3.6,0.026v-17.65      c1.514,0.265,4.093-0.773,6.729-0.852c1.419-0.044,1.817,0.765,1.817,0.765V104.678z M35.032,104.608c0,0-0.956,0.726-3.6-0.026      c-3.422-0.973-4.95,0.096-4.95,0.096V86.871c0,0,0.403-0.809,1.817-0.765c2.64,0.078,5.219,1.116,6.732,0.852V104.608z"></path>
					<path fill="#231F20" d="M98.135,88.317v-3.73c-2.634,0.623-6.922-0.81-8.84-0.81c-2.116,0-3.22,0.926-3.22,0.926      s-1.08-0.921-3.22-0.926c-1.915-0.005-6.208,1.445-8.84,0.81v3.73h-2.581v20.497h12.128v1.523h5.029v-1.523h12.127V88.317      H98.135z M84.402,104.678c0,0-1.528-1.069-4.943-0.096c-2.646,0.752-3.604,0.026-3.604,0.026v-17.65      c1.516,0.265,4.098-0.773,6.732-0.852c1.42-0.044,1.814,0.765,1.814,0.765V104.678z M95.635,104.608      c0,0-0.957,0.726-3.602-0.026c-3.426-0.973-4.949,0.096-4.949,0.096V86.871c0,0,0.406-0.809,1.823-0.765      c2.634,0.078,5.214,1.116,6.728,0.852V104.608z"></path>
				</g>
			</g>
			<g>
				<polygon fill="#E11B22" points="48.441,185.921 55.473,187.733 62.487,185.948 62.487,131.501 107.043,131.501 107.043,119.008      62.487,119.008 62.487,78.265 48.441,78.265 48.441,119.008 3.859,119.008 3.859,131.501 48.441,131.501    "></polygon>
				<g>
					<path fill="#E11B22" d="M27.935,56.494c-4.539-0.392-9.005,1.229-8.728,1.505c0.696,0.697,2.57,6.148,4.937,7.198      c7.174,2.018,14.137,0.021,13.444-0.85C35.683,61.952,35.661,57.151,27.935,56.494z"></path>
					<path fill="#E11B22" d="M62.938,56.888c-4.54-0.388-9.012,1.224-8.731,1.501c0.698,0.697,2.578,6.148,4.939,7.202      c7.18,2.023,14.141,0.021,13.444-0.855C70.691,62.347,70.671,57.543,62.938,56.888z"></path>
					<path fill="#E11B22" d="M94.014,65.332c7.175,2.022,11.908,0.14,12.585-1.31c0.769-1.65-1.07-6.739-8.799-7.394      c-4.538-0.388-9.003,1.224-8.722,1.501C89.77,58.826,91.647,64.277,94.014,65.332z"></path>
				</g>
			</g>
		</g>
		<g fill="#000000">
			<path d="M156.166,78.175c4.666,0,7.323,0.778,9.462,2.269c2.203,1.555,3.37,3.889,3.37,7.127     c0,5.703-5.379,8.49-8.489,9.268v0.13c5.896,0.842,11.211,4.341,11.211,10.888c0,4.6-2.269,7.84-6.027,9.979     c-3.306,1.815-7.452,2.463-12.378,2.463h-14.905v-1.491c5.444-0.389,5.962-0.842,5.962-7.906V87.571     c-0.064-7.064-0.454-7.517-5.572-7.906v-1.491H156.166z M149.815,96.515h4.083c6.221,0,9.331-2.917,9.331-8.231     c0-3.888-1.619-8.229-9.268-8.229c-2.138,0-3.045,0.193-3.563,0.389c-0.39,0.129-0.584,0.389-0.584,1.685V96.515z      M149.815,98.395v14.126c0,4.343,0.843,5.834,5.572,5.769c5.444,0,10.046-2.722,10.046-9.592c0-7.064-5.185-10.303-11.858-10.303     H149.815z"></path>
			<path d="M191.099,110.902c0,7.064,0.52,7.517,5.834,7.906v1.491h-17.238v-1.491     c5.442-0.389,5.961-0.842,5.961-7.906V87.571c0-7.064-0.519-7.517-5.703-7.906v-1.491h16.462c4.146,0,7.841,0.583,10.238,2.204     c2.593,1.62,4.277,4.537,4.277,8.295c0,5.379-3.305,9.203-8.553,11.341c1.166,1.944,3.822,6.416,5.767,9.268     c2.333,3.435,3.694,5.184,5.443,7.128c1.36,1.621,2.527,2.658,4.86,3.24l-0.13,1.231h-0.907     c-7.453-0.194-9.721-2.462-12.184-6.026c-2.008-2.917-4.73-7.711-6.545-10.759c-1.038-1.685-2.074-2.333-4.082-2.333h-3.501     V110.902z M191.099,99.884h3.759c2.658,0,4.732-0.324,6.482-1.75c2.786-2.202,3.758-5.378,3.758-8.554     c0-6.805-4.926-9.526-9.786-9.526c-2.203,0-3.109,0.129-3.63,0.324c-0.388,0.129-0.583,0.454-0.583,1.75V99.884z"></path>
			<path d="M264.29,98.654c0,13.479-9.396,22.616-21.773,22.616c-12.248,0-20.932-9.332-20.932-21.579     c0-10.888,7.646-22.488,22.098-22.488C254.894,77.203,264.29,85.887,264.29,98.654z M241.998,79.342     c-7.646,0-14.128,6.286-14.128,18.469c0,12.508,6.546,21.32,16.008,21.32c7.776,0,14.126-6.026,14.126-18.08     C258.004,87.054,251.266,79.342,241.998,79.342z"></path>
			<path d="M285.959,79.666l-2.009,0.259c-2.916,0.389-3.306,0.972-2.396,3.823l8.748,27.608h0.13l10.369-32.534     h1.555l11.729,32.469h0.13c2.657-8.166,6.417-21.84,7.518-26.506c0.908-3.758,0.585-4.537-2.333-4.86l-1.879-0.259v-1.491h13.738     v1.491c-4.277,0.518-4.73,0.778-6.868,6.675c-0.585,1.62-5.315,16.525-10.76,34.347h-1.75l-11.663-31.69l-0.13,0.129     l-10.564,31.561h-1.814l-11.211-34.801c-1.75-5.379-2.723-5.832-6.415-6.221v-1.491h15.876V79.666z"></path>
			<path d="M375.115,120.753h-1.686L345.304,86.6h-0.128v16.526c0,6.805,0.259,10.304,0.518,12.313     c0.324,2.268,2.073,3.176,6.351,3.369v1.491H336.49v-1.491c3.564-0.129,5.25-1.101,5.573-3.369     c0.26-2.009,0.521-5.508,0.521-12.313V89.062c0-4.666-0.066-5.703-1.233-7.192c-1.23-1.556-2.98-2.01-5.702-2.204v-1.491h9.462     l27.283,32.663h0.129V95.348c0-6.804-0.26-10.303-0.519-12.313c-0.323-2.268-2.074-3.175-6.352-3.37v-1.491h15.555v1.491     c-3.563,0.129-5.25,1.102-5.573,3.37c-0.261,2.01-0.519,5.509-0.519,12.313V120.753z"></path>
		</g>
	</g>
</svg>
