<svg
  xmlns="http://www.w3.org/2000/svg"
  width="22px"
  height="20px"
  role="img"
	aria-labelledby="title"
>
  <title>Snapchat</title>
  <g stroke="none" stroke-width="1" fill="none" fill-rule="evenodd">
    <g transform="translate(-178.000000, -3075.000000)" fill="#FFFFFF">
      <g transform="translate(0.000000, 2464.000000)">
        <g transform="translate(27.000000, 610.000000)">
          <path d="M162.21153,1 L162.210561,1 C162.191575,1 162.17373,1 162.156739,1.0002205 C162.021274,1.00154352 161.798577,1.0036383 161.778565,1.0038588 C161.290182,1.0038588 160.313018,1.07056093 159.263388,1.5185126 C158.663258,1.77446135 158.123449,2.12054067 157.659012,2.54715868 C157.105291,3.05547302 156.654195,3.68219742 156.318497,4.41018779 C155.826864,5.47609886 155.943572,7.2714887 156.037303,8.71429438 L156.037645,8.71655453 C156.04768,8.87107195 156.058227,9.03242495 156.067863,9.18964353 C155.99574,9.22167158 155.878804,9.25546365 155.70645,9.25546365 C155.429134,9.25546365 155.099364,9.16974314 154.726549,9.00083791 C154.616854,8.95144526 154.491651,8.9264733 154.353506,8.9264733 C154.13155,8.9264733 153.897564,8.98964739 153.694594,9.10502554 C153.439228,9.2500062 153.274229,9.45490853 153.229416,9.68208166 C153.199883,9.83235439 153.201308,10.1293718 153.542537,10.4305788 C153.730228,10.596397 154.005948,10.7493158 154.36183,10.8853109 C154.455219,10.920867 154.566054,10.9548245 154.683446,10.9908216 C155.090812,11.1160121 155.707362,11.3051485 155.868142,11.6710179 C155.949615,11.856516 155.914552,12.1006127 155.764206,12.3956456 C155.760272,12.403694 155.756338,12.411577 155.752746,12.4198458 C155.715173,12.5046843 155.364651,13.2723652 154.645646,14.0819968 C154.237083,14.5424068 153.787071,14.9271844 153.308837,15.2259659 C152.725126,15.5907328 152.093524,15.8292067 151.431762,15.9346071 C151.171892,15.9758411 150.986311,16.1997067 151.000792,16.454112 C151.005239,16.5274292 151.023028,16.6005259 151.053872,16.6712522 C151.0541,16.6716932 151.054386,16.6721342 151.054614,16.6725201 C151.159691,16.9101671 151.403312,17.1120375 151.799389,17.2900936 C152.283381,17.5074544 153.007232,17.6903064 153.950644,17.8333577 C153.998308,17.9210076 154.047796,18.14129 154.082062,18.292114 C154.117924,18.4524196 154.155325,18.6172455 154.208633,18.7923248 C154.26616,18.9820125 154.415366,19.2086895 154.798672,19.2086895 C154.943944,19.2086895 155.110995,19.1770473 155.304444,19.1407746 C155.587747,19.087027 155.975158,19.0137098 156.458694,19.0137098 C156.726774,19.0137098 157.004604,19.0365318 157.284258,19.0814593 C157.823326,19.1682272 158.288048,19.4856411 158.825748,19.8532195 C159.612771,20.3911363 160.503616,21 161.864713,21 C161.901829,21 161.93906,20.9988424 161.975834,20.9963617 C162.020818,20.9984014 162.076578,21 162.135416,21 C163.496913,21 164.38753,20.3909158 165.173697,19.85344 L165.174951,19.8523375 C165.712765,19.4852001 166.176974,19.1682272 166.715871,19.0814593 C166.995411,19.0365869 167.273184,19.0137098 167.541378,19.0137098 C168.003306,19.0137098 168.369052,19.0706546 168.695629,19.1322301 C168.908747,19.1728026 169.074373,19.1923171 169.201458,19.1923171 L169.213887,19.1925376 L169.226772,19.1925376 C169.50711,19.1925376 169.713102,19.0437533 169.791724,18.7833945 C169.843949,18.6120086 169.881237,18.4510415 169.918011,18.2880347 C169.950053,18.1466923 170.001251,17.9201256 170.048915,17.8315385 C170.992954,17.6882116 171.71652,17.5057455 172.20057,17.2884399 C172.595734,17.1112106 172.839071,16.9095607 172.944775,16.672906 C172.976475,16.6019592 172.995004,16.5284214 172.999166,16.4535607 C173.014047,16.1995965 172.828181,15.9752899 172.56814,15.9340558 C169.627068,15.4653769 168.302117,12.5434928 168.247327,12.4193497 C168.243792,12.4111911 168.239801,12.4030876 168.235639,12.3952046 C168.085293,12.1000615 168.050571,11.8562404 168.132101,11.6704115 C168.292539,11.3048728 168.90869,11.1157365 169.316341,10.9906011 C169.43436,10.9546591 169.545595,10.9204811 169.638242,10.8850904 C170.039565,10.7318409 170.326403,10.5655817 170.515632,10.3767761 C170.741636,10.1516977 170.785651,9.93604589 170.782914,9.79492402 C170.776016,9.45347526 170.506054,9.15006326 170.076624,9.00149942 C169.93158,8.94350715 169.766182,8.91291237 169.597762,8.91291237 C169.483107,8.91291237 169.313319,8.92812708 169.152596,9.00067253 C168.808516,9.15634759 168.500298,9.24146171 168.235696,9.25358937 C168.094985,9.24669866 167.996294,9.21720639 167.932381,9.18903715 C167.94042,9.05585339 167.949314,8.91903133 167.958493,8.77636595 L167.962313,8.71528664 C168.056558,7.27154382 168.173665,5.47477585 167.681804,4.40809301 C167.34468,3.67751173 166.891988,3.04918869 166.336043,2.53977183 C165.869782,2.1128782 165.328148,1.766854 164.725851,1.51107062 C163.677704,1.0664265 162.700597,1 162.21153,1"></path>
        </g>
      </g>
    </g>
  </g>
</svg>