<svg
  xmlns="http://www.w3.org/2000/svg"
  width="23px"
  height="19px"
  viewBox="0 0 23 19"
  role="img"
	aria-labelledby="title"
>
  <title>Twitter</title>
  <g stroke="none" stroke-width="1" fill="none" fill-rule="evenodd">
    <g transform="translate(-102.000000, -3076.000000)" fill="#FFFFFF">
      <g transform="translate(0.000000, 2464.000000)">
        <g transform="translate(27.000000, 610.000000)">
          <path d="M97.25,4.24925966 C96.4416417,4.63076923 95.5713007,4.88876851 94.6583465,5.00404478 C95.5906703,4.41119538 96.3060545,3.47114482 96.6430856,2.35131817 C95.770162,2.9002528 94.8055556,3.29960274 93.7750924,3.51368725 C92.9538211,2.58187071 91.7800229,2 90.4809679,2 C87.9900364,2 85.9691407,4.14770675 85.9691407,6.79631636 C85.9691407,7.17233658 86.0078799,7.53737811 86.0853583,7.88869628 C82.3341111,7.68833514 79.0089951,5.78078729 76.7814903,2.87555074 C76.3928068,3.58642109 76.170702,4.41119538 76.170702,5.28949079 C76.170702,6.95276273 76.9674385,8.42116287 78.1786846,9.28161791 C77.4400569,9.25828819 76.7427511,9.04008667 76.1332541,8.68327916 L76.1332541,8.74228964 C76.1332541,11.0670278 77.6892792,13.0061394 79.7553707,13.4452871 C79.3770177,13.5578187 78.9780038,13.6140845 78.5660768,13.6140845 C78.2755327,13.6140845 77.9914451,13.5852654 77.7163967,13.5289996 C78.2910284,15.4338028 79.9568146,16.8212351 81.9325145,16.8582882 C80.3881112,18.1455399 78.44082,18.9126761 76.3269502,18.9126761 C75.9628015,18.9126761 75.6025269,18.8907187 75.25,18.8468039 C77.2476522,20.2054171 79.6210747,21 82.1688237,21 C90.4719287,21 95.0108734,13.6923077 95.0108734,7.35348501 C95.0108734,7.14488985 95.0069995,6.93629469 94.9992516,6.73181654 C95.8812144,6.0552546 96.6469596,5.21126761 97.25,4.24925966"></path>
        </g>
      </g>
    </g>
  </g>
</svg>