<svg
  xmlns="http://www.w3.org/2000/svg"
  width="23px"
  height="15px"
  viewBox="0 0 23 15"
  role="img"
	aria-labelledby="title"
>
  <title>YouTube</title>
  <g stroke="none" stroke-width="1" fill="none" fill-rule="evenodd">
    <g transform="translate(-358.000000, -1379.000000)" fill="#FFFFFF">
      <g transform="translate(0.000000, 1081.000000)">
        <path d="M367.442786,308.266139 L367.442098,302.274004 L373.386223,305.280402 L367.442786,308.266139 Z M380.494286,301.23566 C380.494286,301.23566 380.279098,299.766117 379.619786,299.118985 C378.783098,298.26925 377.845348,298.265251 377.415661,298.215933 C374.337036,298 369.719098,298 369.719098,298 L369.709473,298 C369.709473,298 365.091536,298 362.012911,298.215933 C361.582536,298.265251 360.645473,298.26925 359.808098,299.118985 C359.148786,299.766117 358.934286,301.23566 358.934286,301.23566 C358.934286,301.23566 358.714286,302.96179 358.714286,304.687253 L358.714286,306.305416 C358.714286,308.031546 358.934286,309.757009 358.934286,309.757009 C358.934286,309.757009 359.148786,311.226552 359.808098,311.873684 C360.645473,312.723419 361.744786,312.696761 362.234286,312.7854 C363.994286,312.949349 369.714286,313 369.714286,313 C369.714286,313 374.337036,312.993335 377.415661,312.777403 C377.845348,312.727418 378.783098,312.723419 379.619786,311.873684 C380.279098,311.226552 380.494286,309.757009 380.494286,309.757009 C380.494286,309.757009 380.714286,308.031546 380.714286,306.305416 L380.714286,304.687253 C380.714286,302.96179 380.494286,301.23566 380.494286,301.23566 L380.494286,301.23566 Z"></path>
      </g>
    </g>
  </g>
</svg>