<svg xmlns="http://www.w3.org/2000/svg" viewBox="0 0 22 20">
  <path d="M22 4.038v.924h-3.663v3.663h-.924V4.962H13.75v-.924h3.663V.375h.924v3.663H22zM9.55 11.525c1.504 1.096 2.009 2.095 2.009 3.75 0 2.083-2.01 4.146-5.672 4.146-3.19 0-5.887-1.3-5.887-3.384 0-2.116 2.47-4.157 5.65-4.157h1c-.441-.43-.763-.935-.763-1.58 0-.375.096-.762.279-1.084-.183.021-.365.021-.537.021-2.621 0-4.383-1.858-4.383-4.178 0-2.267 2.417-4.222 5.017-4.222h5.758l-1.3.934H8.884c1.224.462 1.858 1.859 1.858 3.32 0 1.214-.655 2.256-1.622 2.997-.924.741-1.096 1.042-1.096 1.654 0 .537.989 1.429 1.526 1.783zM6.467 8.646C7.949 8.7 8.937 7.153 8.68 5.21 8.433 3.254 7.025 1.696 5.52 1.653 4.05 1.6 3.051 3.103 3.31 5.037c.257 1.955 1.686 3.567 3.158 3.61zm-.58 9.862c3.104 0 4.168-1.332 4.168-3.008 0-.204-.022-.387-.043-.59-.258-.935-1.128-1.419-2.32-2.257a6.402 6.402 0 0 0-1.43-.236c-2.212 0-4.178 1.354-4.178 3.008 0 1.676 1.58 3.083 3.803 3.083z" fill-rule="evenodd"/>
</svg>