<svg
  xmlns="http://www.w3.org/2000/svg"
	viewBox="0 0 1600 2000"
>
	<style>
		.cls-1 {
      fill: none;
      stroke: #e2e2e2;
      stroke-linecap: round;
      stroke-linejoin: round;
    }
	</style>
	<g>
		<circle class="cls-1" cx="72.71" cy="523.83" r="69.83" />
		<circle class="cls-1" cx="72.71" cy="523.83" r="62.29" />
		<circle class="cls-1" cx="72.71" cy="523.83" r="43.21" />
		<path class="cls-1" d="M115.91,524h0L86.14,522a13.46,13.46,0,0,0-.91-2.88l25-16.62.28-.16-.13.06.11-.07-.28.15L83.1,515.81a13.71,13.71,0,0,0-2-1.92l13.42-27.11.16-.28-.08.12.06-.12-.16.27L77.55,511.95a13.59,13.59,0,0,0-2.6-.69l-2-30.29v0l-2,30.24a13.61,13.61,0,0,0-2.64.62L51.37,486.64l-.16-.28.06.12-.07-.11.16.27,13.38,27a13.7,13.7,0,0,0-2.12,1.9L35.54,502.3l-.28-.16.12.08-.12-.06.27.16L60.4,518.87a13.43,13.43,0,0,0-1,2.92l-29.7,1.94h0l29.43,1.93a13.46,13.46,0,0,0,.67,3.29L35.4,545.21l-.28.16.12-.06-.11.07.28-.15,26.12-12.81A13.72,13.72,0,0,0,64,535.06L51.13,561l-.16.28.08-.12-.06.12.16-.27,16-23.9a13.6,13.6,0,0,0,3.57,1l1.9,28.68v0l1.89-28.66a13.62,13.62,0,0,0,3.57-1l16.09,24,.16.28-.06-.12.07.11-.16-.27L81.42,535.16a13.69,13.69,0,0,0,2.41-2.58l26.24,12.87.28.16-.12-.08.12.06-.27-.16L85.62,529.15a13.66,13.66,0,0,0,.71-3.2Z" />
		<circle class="cls-1" cx="72.89" cy="524.44" r="10.01" />
		<rect class="cls-1" x="-62.88" y="403.73" width="270.74" height="206.51" />
		<polyline class="cls-1" points="194.09 443.93 194.09 610.25 165.69 610.25 165.69 444.01" />
		<rect class="cls-1" x="160.9" y="403.65" width="38.11" height="15.07" rx="7.54" ry="7.54" />
		<path class="cls-1" d="M193,435.07H166.89a4.51,4.51,0,1,0,0,9h2.58a10.82,10.82,0,0,0,21,0H193a4.51,4.51,0,0,0,0-9Z" />
		<rect class="cls-1" x="168.47" y="418.69" width="22.58" height="16.31" />
		<line class="cls-1" x1="172.35" y1="421.91" x2="172.35" y2="430.85" />
		<line class="cls-1" x1="175.3" y1="421.95" x2="175.3" y2="430.89" />
		<line class="cls-1" x1="178.25" y1="421.98" x2="178.25" y2="430.92" />
		<line class="cls-1" x1="181.2" y1="422.02" x2="181.2" y2="430.96" />
		<line class="cls-1" x1="184.15" y1="422.05" x2="184.15" y2="430.99" />
		<line class="cls-1" x1="187.1" y1="422.09" x2="187.1" y2="431.02" />
		<path class="cls-1" d="M185.79,491.76a14.87,14.87,0,0,0,.12-11.36,2.7,2.7,0,1,0-3.31-4.2,5.19,5.19,0,0,0-2.75-.82,5.12,5.12,0,0,0-2.48.67,2.7,2.7,0,1,0-3.46,4.05,14.87,14.87,0,0,0-.09,11.43,2.7,2.7,0,1,0,3.36,4.17,5,5,0,0,0,5.18.09,2.7,2.7,0,1,0,3.44-4Z" />
		<path class="cls-1" d="M185.79,533.29a14.87,14.87,0,0,0,.12-11.36,2.7,2.7,0,1,0-3.31-4.2,5.19,5.19,0,0,0-2.75-.82,5.12,5.12,0,0,0-2.48.67,2.7,2.7,0,1,0-3.46,4.05,14.87,14.87,0,0,0-.09,11.43,2.7,2.7,0,1,0,3.36,4.17,5,5,0,0,0,5.18.09,2.7,2.7,0,1,0,3.44-4Z" />
		<path class="cls-1" d="M185.79,574.82a14.87,14.87,0,0,0,.12-11.36,2.7,2.7,0,1,0-3.31-4.2,5.19,5.19,0,0,0-2.75-.82,5.12,5.12,0,0,0-2.48.67,2.7,2.7,0,1,0-3.46,4.05,14.87,14.87,0,0,0-.09,11.43,2.7,2.7,0,1,0,3.36,4.17,5,5,0,0,0,5.18.09,2.7,2.7,0,1,0,3.44-4Z" />
		<rect class="cls-1" x="-71.56" y="610.35" width="286.46" height="3.18" />
		<rect class="cls-1" x="-64.66" y="613.64" width="272.67" height="8.63" />
		<polyline class="cls-1" points="171.9 639.9 165.73 639.9 165.73 622.28 194.22 622.28 194.22 639.9 188.08 639.9" />
		<rect class="cls-1" x="171.92" y="633.74" width="5.29" height="12.63" />
		<rect class="cls-1" x="182.65" y="633.74" width="5.29" height="12.63" />
		<rect class="cls-1" x="177.26" y="633.74" width="5.29" height="15.96" />
		<rect class="cls-1" x="21.06" y="403.65" width="23.3" height="15.07" rx="7.54" ry="7.54" />
		<rect class="cls-1" x="25.9" y="418.69" width="13.61" height="16.31" />
		<line class="cls-1" x1="29.58" y1="421.91" x2="29.58" y2="430.85" />
		<line class="cls-1" x1="32.54" y1="421.95" x2="32.54" y2="430.89" />
		<line class="cls-1" x1="35.49" y1="421.98" x2="35.49" y2="430.92" />
		<path class="cls-1" d="M38.66,435H26.75a3.79,3.79,0,0,0,0,7.58h1.74a4.07,4.07,0,0,0,8.15,0h2a3.79,3.79,0,0,0,0-7.58Z" />
		<circle class="cls-1" cx="12.93" cy="423.05" r="7.41" />
		<circle class="cls-1" cx="132.48" cy="423.05" r="7.41" />
		<rect class="cls-1" x="61.01" y="403.65" width="23.3" height="15.07" rx="7.54" ry="7.54" />
		<rect class="cls-1" x="65.85" y="418.69" width="13.61" height="16.31" />
		<line class="cls-1" x1="69.54" y1="421.91" x2="69.54" y2="430.85" />
		<line class="cls-1" x1="72.49" y1="421.95" x2="72.49" y2="430.89" />
		<line class="cls-1" x1="75.44" y1="421.98" x2="75.44" y2="430.92" />
		<path class="cls-1" d="M78.62,435H66.7a3.79,3.79,0,0,0,0,7.58h1.74a4.07,4.07,0,0,0,8.15,0h2a3.79,3.79,0,0,0,0-7.58Z" />
		<circle class="cls-1" cx="52.89" cy="423.05" r="7.41" />
		<rect class="cls-1" x="100.96" y="403.65" width="23.3" height="15.07" rx="7.54" ry="7.54" />
		<rect class="cls-1" x="105.81" y="418.69" width="13.61" height="16.31" />
		<line class="cls-1" x1="109.49" y1="421.91" x2="109.49" y2="430.85" />
		<line class="cls-1" x1="112.44" y1="421.95" x2="112.44" y2="430.89" />
		<line class="cls-1" x1="115.39" y1="421.98" x2="115.39" y2="430.92" />
		<path class="cls-1" d="M118.57,435H106.66a3.79,3.79,0,1,0,0,7.58h1.74a4.07,4.07,0,0,0,8.15,0h2a3.79,3.79,0,0,0,0-7.58Z" />
		<circle class="cls-1" cx="92.84" cy="423.05" r="7.41" />
		<line class="cls-1" x1="-24.97" y1="435.06" x2="27.28" y2="435.06" />
		<line class="cls-1" x1="116.66" y1="435.06" x2="168.9" y2="435.06" />
		<line class="cls-1" x1="34.92" y1="434.94" x2="105.87" y2="434.99" />
		<polyline class="cls-1" points="116.6 442.6 148.89 442.6 148.89 610.17 -3.48 610.17 -3.48 442.6 28.46 442.6" />
		<line class="cls-1" x1="76.62" y1="442.6" x2="108.43" y2="442.6" />
		<line class="cls-1" x1="36.64" y1="442.6" x2="68.39" y2="442.6" />
		<polyline class="cls-1" points="-64.79 932.88 -64.79 622.29 207.85 622.29 207.85 867.81" />
		<polygon class="cls-1" points="208.12 622.4 -64.69 622.4 -64.69 654.55 -48.37 654.55 -48.37 664.27 -19.8 664.27 -19.8 654.55 165.71 654.55 165.71 664.27 194.29 664.27 194.29 654.55 208.12 654.55 208.12 622.4" />
		<polyline class="cls-1" points="-4.8 932.82 -4.8 654.75 147.87 654.75 147.87 956.06" />
		<polyline class="cls-1" points="32.24 683.2 32.24 702.19 21.36 702.19 21.35 683.2" />
		<polyline class="cls-1" points="18.82 673 18.82 658.61 34.78 658.61 34.78 673.03" />
		<polyline class="cls-1" points="21.36 932.85 21.36 702.19 32.24 702.19 32.24 956.09" />
		<rect class="cls-1" x="16.08" y="654.53" width="21.44" height="4.05" />
		<path class="cls-1" d="M18.77,679.28a2.6,2.6,0,0,0,2.56,2.6,2.52,2.52,0,0,0,2.83,3.18,2.57,2.57,0,0,0-.12.74,2.6,2.6,0,0,0,2.6,2.6l.16,0,.16,0a2.6,2.6,0,0,0,2.6-2.6,2.57,2.57,0,0,0-.12-.74,2.57,2.57,0,0,0,.3,0,2.58,2.58,0,0,0,2.52-3.21,2.6,2.6,0,0,0,2.56-2.6,2.56,2.56,0,0,0-.53-1.56h-15A2.55,2.55,0,0,0,18.77,679.28Z" />
		<path class="cls-1" d="M34.77,673H18.82a2.36,2.36,0,1,0,0,4.72H34.77a2.36,2.36,0,1,0,0-4.72Z" />
		<polyline class="cls-1" points="61.82 683.15 61.82 702.14 50.94 702.14 50.92 683.15" />
		<polyline class="cls-1" points="48.39 672.96 48.39 658.56 64.35 658.56 64.35 672.98" />
		<polyline class="cls-1" points="50.93 858.43 50.93 702.14 61.81 702.14 61.81 932.8" />
		<rect class="cls-1" x="45.65" y="654.48" width="21.44" height="4.05" />
		<path class="cls-1" d="M48.35,679.23a2.6,2.6,0,0,0,2.56,2.6A2.52,2.52,0,0,0,53.73,685a2.57,2.57,0,0,0-.12.74,2.6,2.6,0,0,0,2.6,2.6l.16,0,.16,0a2.6,2.6,0,0,0,2.6-2.6A2.57,2.57,0,0,0,59,685a2.57,2.57,0,0,0,.3,0,2.58,2.58,0,0,0,2.52-3.21,2.6,2.6,0,0,0,2.56-2.6,2.56,2.56,0,0,0-.53-1.56h-15A2.55,2.55,0,0,0,48.35,679.23Z" />
		<path class="cls-1" d="M64.35,672.95H48.4a2.36,2.36,0,1,0,0,4.72H64.35a2.36,2.36,0,1,0,0-4.72Z" />
		<polyline class="cls-1" points="91.39 683.1 91.39 702.09 80.51 702.09 80.5 683.1" />
		<polyline class="cls-1" points="77.97 672.91 77.97 658.51 93.93 658.51 93.93 672.93" />
		<polyline class="cls-1" points="80.51 900.22 80.51 702.09 91.39 702.09 91.39 853.74" />
		<rect class="cls-1" x="75.23" y="654.43" width="21.44" height="4.05" />
		<path class="cls-1" d="M77.92,679.18a2.6,2.6,0,0,0,2.56,2.6A2.52,2.52,0,0,0,83.31,685a2.57,2.57,0,0,0-.12.74,2.6,2.6,0,0,0,2.6,2.6l.16,0,.16,0a2.6,2.6,0,0,0,2.6-2.6,2.57,2.57,0,0,0-.12-.74,2.57,2.57,0,0,0,.3,0,2.58,2.58,0,0,0,2.52-3.21,2.6,2.6,0,0,0,2.56-2.6,2.56,2.56,0,0,0-.53-1.56h-15A2.55,2.55,0,0,0,77.92,679.18Z" />
		<path class="cls-1" d="M93.92,672.9H78a2.36,2.36,0,1,0,0,4.72H93.92a2.36,2.36,0,1,0,0-4.72Z" />
		<polyline class="cls-1" points="121.72 683.05 121.71 702.04 110.83 702.04 110.82 683.05" />
		<polyline class="cls-1" points="108.29 672.86 108.29 658.47 124.25 658.47 124.25 672.88" />
		<polyline class="cls-1" points="110.83 909.47 110.83 702.05 121.71 702.05 121.71 881.58" />
		<rect class="cls-1" x="105.55" y="654.38" width="21.44" height="4.05" />
		<path class="cls-1" d="M108.24,679.13a2.6,2.6,0,0,0,2.56,2.6,2.52,2.52,0,0,0,2.83,3.18,2.57,2.57,0,0,0-.12.74,2.6,2.6,0,0,0,2.6,2.6l.16,0,.16,0a2.6,2.6,0,0,0,2.6-2.6,2.57,2.57,0,0,0-.12-.74,2.57,2.57,0,0,0,.3,0,2.58,2.58,0,0,0,2.52-3.21,2.6,2.6,0,0,0,2.56-2.6,2.56,2.56,0,0,0-.53-1.56h-15A2.55,2.55,0,0,0,108.24,679.13Z" />
		<path class="cls-1" d="M124.24,672.85H108.3a2.36,2.36,0,1,0,0,4.72h15.95a2.36,2.36,0,1,0,0-4.72Z" />
		<rect class="cls-1" x="-69.75" y="391.76" width="286.46" height="3.18" />
		<rect class="cls-1" x="-62.86" y="395.05" width="272.67" height="8.63" />
		<rect class="cls-1" x="-68.74" y="352.71" width="70.15" height="8.46" rx="4.23" ry="4.23" />
		<rect class="cls-1" x="148.1" y="361.23" width="59.16" height="30.5" />
		<rect class="cls-1" x="142.22" y="352.71" width="70.15" height="8.46" rx="4.23" ry="4.23" />
		<rect class="cls-1" x="148.16" y="346.76" width="59.12" height="5.79" rx="2.9" ry="2.9" />
		<path class="cls-1" d="M158.64,329.3s0,.1,0,.14c0,9.57,8.23,17.32,18.38,17.32s18.38-7.76,18.38-17.32c0,0,0-.1,0-.14Z" />
		<rect class="cls-1" x="156.72" y="326.21" width="40.58" height="2.98" rx="1.49" ry="1.49" />
		<rect class="cls-1" x="156.72" y="323.17" width="40.58" height="2.98" rx="1.49" ry="1.49" />
		<path class="cls-1" d="M159.57,323.17c2.4-4,9.32-6.82,17.48-6.82s14.93,2.8,17.4,6.7" />
		<polyline class="cls-1" points="173.15 316.55 173.15 314.23 180.88 314.23 180.88 316.55" />
		<path class="cls-1" d="M182.08,310.74h0a1.8,1.8,0,0,0-.83-1,1.68,1.68,0,0,0,0-.2,1.74,1.74,0,0,0-1.25-1.66,1.63,1.63,0,0,0-.72-1.29s0-.06,0-.1a1.74,1.74,0,0,0-1.1-1.61,1.15,1.15,0,0,0,0-.12,1.21,1.21,0,1,0-2.4.12,1.74,1.74,0,0,0-1.07,1.6s0,.08,0,.12a1.63,1.63,0,0,0-.67,1.25,1.74,1.74,0,0,0-1.29,1.67c0,.05,0,.1,0,.15a1.8,1.8,0,0,0-.94,1.09,1.73,1.73,0,0,0,.08,3.47h10.14a1.74,1.74,0,0,0,0-3.47Z" />
		<line class="cls-1" x1="148.11" y1="375.46" x2="-4.39" y2="375.46" />
		<line class="cls-1" x1="-3.67" y1="367.02" x2="148.02" y2="367.02" />
		<line class="cls-1" x1="-3.6" y1="361.2" x2="148.87" y2="361.2" />
		<path class="cls-1" d="M33,265.41v-1.59a38.3,38.3,0,0,1,32.78-38" />
		<path class="cls-1" d="M45.71,270.79,46,361.27l-12.71,0L33,270.87" />
		<path class="cls-1" d="M66.73,238.55a25.58,25.58,0,0,0-21,25.24v1.47" />
		<path class="cls-1" d="M96.69,265.22V263A25.58,25.58,0,0,0,75.6,238.54" />
		<polyline class="cls-1" points="109.42 270.58 109.69 361.08 96.98 361.12 96.71 270.6" />
		<path class="cls-1" d="M76.43,225.81l1.31.2,1.29.25,1.28.29,1.26.33,1.24.37,1.23.42,1.21.46,1.19.49,1.17.53,1.14.57,1.12.61L91,231l1.08.68,1.05.71,1,.75,1,.78,1,.81.95.84.92.87.89.9q.44.46.86.93t.83,1q.41.49.8,1t.76,1q.37.51.73,1t.7,1.07q.34.54.66,1.09t.63,1.11q.3.56.59,1.14t.55,1.16q.27.58.51,1.18t.48,1.2q.23.6.44,1.22t.4,1.24q.19.62.35,1.25t.31,1.27q.15.64.27,1.29t.23,1.3q.1.66.18,1.32t.14,1.33c0,.27,0,.54.08.81s0,.32,0,.48v3.46" />
		<rect class="cls-1" x="30.59" y="265.37" width="17.56" height="2.68" rx="1.34" ry="1.34" transform="translate(-0.81 0.12) rotate(-0.17)" />
		<rect class="cls-1" x="30.59" y="268.07" width="17.56" height="2.68" rx="1.34" ry="1.34" transform="translate(-0.82 0.12) rotate(-0.17)" />
		<rect class="cls-1" x="33.02" y="270.73" width="12.69" height="1.74" transform="translate(-0.82 0.12) rotate(-0.17)" />
		<rect class="cls-1" x="94.3" y="265.18" width="17.56" height="2.68" rx="1.34" ry="1.34" transform="translate(-0.81 0.31) rotate(-0.17)" />
		<rect class="cls-1" x="94.31" y="267.88" width="17.56" height="2.68" rx="1.34" ry="1.34" transform="translate(-0.82 0.31) rotate(-0.17)" />
		<rect class="cls-1" x="96.72" y="270.56" width="12.69" height="1.74" transform="translate(-0.82 0.31) rotate(-0.17)" />
		<rect class="cls-1" x="65.83" y="220.34" width="10.56" height="20.52" rx="5.28" ry="5.28" transform="translate(-0.7 0.22) rotate(-0.17)" />
		<path class="cls-1" d="M75.56,222.57h3.37a6.31,6.31,0,0,0,6.27-6.19l-28.2.09a6.31,6.31,0,0,0,6.31,6.15h3.42" />
		<path class="cls-1" d="M78.29,213.27l7.95,0a1.5,1.5,0,0,1,1.5,1.49h0a1.5,1.5,0,0,1-1.49,1.5L56,216.34a1.5,1.5,0,0,1-1.5-1.49h0a1.5,1.5,0,0,1,1.49-1.5l7.51,0" />
		<path class="cls-1" d="M17.31,192.35a5.4,5.4,0,0,0,5.2,5.59" />
		<rect class="cls-1" x="5.07" y="346.91" width="18.68" height="14.03" />
		<polygon class="cls-1" points="19.73 201.26 8.66 201.26 7.23 346.81 21.15 346.81 19.73 201.26" />
		<rect class="cls-1" x="5.03" y="197.88" width="18.31" height="3.37" rx="1.68" ry="1.68" />
		<rect class="cls-1" x="0.64" y="187.12" width="27.1" height="10.84" rx="5.42" ry="5.42" />
		<path class="cls-1" d="M11.25,192.37A5.4,5.4,0,0,1,6.05,198" />
		<rect class="cls-1" x="5.34" y="177.72" width="17.71" height="9.29" />
		<path class="cls-1" d="M22.39,177.71H6a1.67,1.67,0,0,1-1.85-1.61h0A1.78,1.78,0,0,1,6,174.42H22.39a1.78,1.78,0,0,1,1.85,1.68h0A1.67,1.67,0,0,1,22.39,177.71Z" />
		<path class="cls-1" d="M131.49,192.36a5.4,5.4,0,0,0,5.2,5.59" />
		<rect class="cls-1" x="119.24" y="346.92" width="18.68" height="14.03" />
		<polygon class="cls-1" points="133.9 201.27 122.83 201.27 121.41 346.82 135.33 346.82 133.9 201.27" />
		<rect class="cls-1" x="119.21" y="197.89" width="18.31" height="3.37" rx="1.68" ry="1.68" />
		<rect class="cls-1" x="114.81" y="187.13" width="27.1" height="10.84" rx="5.42" ry="5.42" />
		<path class="cls-1" d="M125.43,192.38a5.4,5.4,0,0,1-5.2,5.59" />
		<rect class="cls-1" x="119.51" y="177.73" width="17.71" height="9.29" />
		<path class="cls-1" d="M136.57,177.72H120.16a1.67,1.67,0,0,1-1.85-1.61h0a1.78,1.78,0,0,1,1.85-1.68h16.41a1.78,1.78,0,0,1,1.85,1.68h0A1.67,1.67,0,0,1,136.57,177.72Z" />
		<path class="cls-1" d="M48.94,131v-3.2a68.77,68.77,0,0,0-43.49,41.1l.06,0H8.38A68.71,68.71,0,0,1,48.94,131Z" />
		<path class="cls-1" d="M48.94,140.27V131A68.71,68.71,0,0,0,8.38,168.93h9.81A57,57,0,0,1,48.94,140.27Z" />
		<path class="cls-1" d="M49.51,168.91l-31.31,0H5.42v5.48H11a2.83,2.83,0,1,0,5.66,0H35.74a2.83,2.83,0,0,0,5.66,0h9.49" />
		<ellipse class="cls-1" cx="71.08" cy="165.77" rx="14.44" ry="20.56" />
		<path class="cls-1" d="M59,143.36c-5.52,4.92-9.14,13.12-9.14,22.41s3.69,17.66,9.32,22.56a6.32,6.32,0,0,0-4.77,6A6.43,6.43,0,0,0,61,200.62a6.7,6.7,0,0,0,5-2.25,6.79,6.79,0,0,0,10.09,0,6.7,6.7,0,0,0,5,2.25,6.43,6.43,0,0,0,6.58-6.27,6.32,6.32,0,0,0-4.77-6c5.62-4.9,9.32-13.18,9.32-22.56,0-9.23-3.57-17.39-9-22.32" />
		<path class="cls-1" d="M58.22,200a6.07,6.07,0,0,0-.18,1.48,6.43,6.43,0,0,0,5.37,6.22,4.05,4.05,0,0,0-1.09,2.75,4.3,4.3,0,0,0,4.4,4.19,4.55,4.55,0,0,0,2-.48,4.58,4.58,0,0,0,4.07,0,4.55,4.55,0,0,0,2,.48,4.3,4.3,0,0,0,4.4-4.19,4.05,4.05,0,0,0-1-2.7,6.45,6.45,0,0,0,5.71-6.27,6.08,6.08,0,0,0-.14-1.28" />
		<path class="cls-1" d="M81.85,135.19a5.4,5.4,0,0,0-1.14.12,3.41,3.41,0,0,0,.06-.58,3.75,3.75,0,0,0-3.83-3.65H65.22a3.75,3.75,0,0,0-3.83,3.65,3.41,3.41,0,0,0,.06.58,5.4,5.4,0,0,0-1.14-.12c-2.63,0-4.76,1.86-4.76,4.15s2.13,4.15,4.76,4.15a5.06,5.06,0,0,0,3.59-1.43,5.22,5.22,0,0,0,7.18,0,5.22,5.22,0,0,0,7.18,0,5.06,5.06,0,0,0,3.59,1.43c2.63,0,4.76-1.86,4.76-4.15S84.47,135.19,81.85,135.19Z" />
		<path class="cls-1" d="M49.92,169.32a19.2,19.2,0,0,1-7.07-14.86,19.52,19.52,0,0,1,16-19" />
		<path class="cls-1" d="M92.27,169.07a19.19,19.19,0,0,0,6.85-14.67,19.52,19.52,0,0,0-16-19" />
		<path class="cls-1" d="M92,169.26l.22-.19" />
		<path class="cls-1" d="M70.61,122h0c-3.86.09-7.1,2-8.26,4.75L66.81,131h7.6l4.46-4.25C77.71,124,74.47,122.08,70.61,122Z" />
		<path class="cls-1" d="M92.75,131v-3.2a68.77,68.77,0,0,1,43.49,41.1l-.06,0h-2.87A68.71,68.71,0,0,0,92.75,131Z" />
		<path class="cls-1" d="M92.74,140v-9a68.71,68.71,0,0,1,40.56,37.91H123.5A57.13,57.13,0,0,0,93,140.4" />
		<path class="cls-1" d="M92.19,168.91l31.31,0h12.77v5.48h-5.6a2.83,2.83,0,1,1-5.66,0H106a2.83,2.83,0,0,1-5.66,0H90.81" />
		<polyline class="cls-1" points="-15.66 323.02 -15.66 168.92 48.92 168.92" />
		<line class="cls-1" x1="158.63" y1="329.27" x2="158.63" y2="346.77" />
		<polyline class="cls-1" points="91.79 168.92 158.63 168.92 158.63 323.17" />
		<polyline class="cls-1" points="5.36 168.89 -15.66 168.89 -15.66 158.9 6.47 158.9 6.46 166.5" />
		<path class="cls-1" d="M4.58,135.44,2,148.9a3.92,3.92,0,0,1-.28,1" />
		<path class="cls-1" d="M1.14,100a5.76,5.76,0,0,1-.5,1.13h0L-3.94,109a.35.35,0,0,1-.6,0l-4.57-7.92h0A5.76,5.76,0,0,1-9.62,100" />
		<rect class="cls-1" x="-11.6" y="97.18" width="14.71" height="2.71" rx="1.36" ry="1.36" />
		<path class="cls-1" d="M1.27,97.13a5.64,5.64,0,0,0-4.18-4.32,1.34,1.34,0,0,0,0-.21,1.35,1.35,0,0,0-1.35-1.35A1.35,1.35,0,0,0-5.6,92.6a1.34,1.34,0,0,0,0,.21,5.64,5.64,0,0,0-4.19,4.35" />
		<rect class="cls-1" x="-12.12" y="149.72" width="15.52" height="4.53" rx="2.27" ry="2.27" />
		<rect class="cls-1" x="-10.55" y="154.31" width="11.95" height="4.53" rx="2.27" ry="2.27" />
		<path class="cls-1" d="M-6,106.84a13.35,13.35,0,0,0-11.33,9.75,3.3,3.3,0,0,0-2.59,3.22,3.28,3.28,0,0,0,1.25,2.57,4.58,4.58,0,0,0-.07.78,4.58,4.58,0,0,0,1.94,3.74,3.45,3.45,0,0,0-.82,2.22,3.47,3.47,0,0,0,1.65,2.95,2.25,2.25,0,0,0-.44,1.33,2.27,2.27,0,0,0,2.27,2.27,2.27,2.27,0,0,0,2.27-2.27,2.25,2.25,0,0,0-.44-1.33,3.47,3.47,0,0,0,1.65-2.95,3.45,3.45,0,0,0-.82-2.22,4.58,4.58,0,0,0,1.93-3.58,3.3,3.3,0,0,0,.6.06,3.27,3.27,0,0,0,1.69-.48,3.28,3.28,0,0,0,2.81,1.6A3.28,3.28,0,0,0-1.5,122.7a3.27,3.27,0,0,0,2,.67,3.21,3.21,0,0,0,.32,0,4.58,4.58,0,0,0,1.93,3.55,3.44,3.44,0,0,0,.82,5.17,2.27,2.27,0,1,0,3.66,0A3.44,3.44,0,0,0,8,126.9a4.56,4.56,0,0,0,1.92-4.23,3.28,3.28,0,0,0-1.44-5.84,13.35,13.35,0,0,0-11.32-10" />
		<path class="cls-1" d="M109.83,104C105,90,89.73,79.81,71.56,79.81S38.07,90,33.28,104C44,94.83,57.26,89.4,71.56,89.4S99.08,94.83,109.83,104Z" />
		<path class="cls-1" d="M71.56,89.4C57.26,89.4,44,94.83,33.28,104,18.54,116.65,8.43,136.35,6.55,158.9" />
		<polyline class="cls-1" points="137.63 168.89 158.64 168.89 158.64 158.9 136.51 158.9 136.52 169.01" />
		<path class="cls-1" d="M153.76,150a3.89,3.89,0,0,0,.31-1.09l2.22-13.34" />
		<path class="cls-1" d="M138.4,135.44,141,148.9a3.92,3.92,0,0,0,.28,1" />
		<line class="cls-1" x1="144.06" y1="104.1" x2="144.06" y2="107.18" />
		<line class="cls-1" x1="150.39" y1="107.18" x2="150.39" y2="104.12" />
		<path class="cls-1" d="M141.85,100a5.76,5.76,0,0,0,.5,1.13h0l4.57,7.92a.35.35,0,0,0,.6,0l4.57-7.92h0a5.76,5.76,0,0,0,.51-1.14" />
		<rect class="cls-1" x="139.87" y="97.18" width="14.71" height="2.71" rx="1.36" ry="1.36" transform="translate(294.45 197.08) rotate(-180)" />
		<path class="cls-1" d="M141.71,97.13a5.64,5.64,0,0,1,4.18-4.32,1.35,1.35,0,1,1,2.66,0,5.64,5.64,0,0,1,4.19,4.35" />
		<rect class="cls-1" x="139.59" y="149.72" width="15.52" height="4.53" rx="2.27" ry="2.27" transform="translate(294.69 303.98) rotate(-180)" />
		<rect class="cls-1" x="141.59" y="154.31" width="11.95" height="4.53" rx="2.27" ry="2.27" transform="translate(295.12 313.15) rotate(180)" />
		<path class="cls-1" d="M148.93,106.84a13.35,13.35,0,0,1,11.33,9.75,3.29,3.29,0,0,1,1.35,5.79,4.55,4.55,0,0,1-1.87,4.53,3.44,3.44,0,0,1-.82,5.17,2.27,2.27,0,1,1-3.66,0,3.44,3.44,0,0,1-.82-5.17,4.58,4.58,0,0,1-1.93-3.58,3.16,3.16,0,0,1-2.29-.42,3.26,3.26,0,0,1-5.72-.19,3.27,3.27,0,0,1-2,.67,3.21,3.21,0,0,1-.32,0,4.58,4.58,0,0,1-1.93,3.55,3.44,3.44,0,0,1-.82,5.17,2.27,2.27,0,1,1-3.66,0,3.44,3.44,0,0,1-.83-5.17,4.56,4.56,0,0,1-1.92-4.23,3.28,3.28,0,0,1,1.44-5.84,13.35,13.35,0,0,1,11.32-10" />
		<path class="cls-1" d="M71.43,89.4c14.3,0,27.52,5.43,38.28,14.63,14.74,12.61,24.85,32.31,26.73,54.87" />
		<line class="cls-1" x1="101.46" y1="474.76" x2="97.27" y2="482" />
		<line class="cls-1" x1="100.41" y1="474.54" x2="102.15" y2="475.54" />
		<line class="cls-1" x1="96.57" y1="481.19" x2="98.31" y2="482.19" />
		<line class="cls-1" x1="121.47" y1="494.2" x2="114.22" y2="498.37" />
		<line class="cls-1" x1="120.66" y1="493.48" x2="121.67" y2="495.22" />
		<line class="cls-1" x1="114.02" y1="497.33" x2="115.03" y2="499.07" />
		<line class="cls-1" x1="122.6" y1="496.13" x2="115.35" y2="500.31" />
		<line class="cls-1" x1="121.79" y1="495.42" x2="122.8" y2="497.15" />
		<line class="cls-1" x1="115.15" y1="499.26" x2="116.16" y2="501" />
		<line class="cls-1" x1="103.63" y1="571.29" x2="101.87" y2="572.27" />
		<line class="cls-1" x1="98.23" y1="565.5" x2="96.48" y2="566.48" />
		<line class="cls-1" x1="100.3" y1="573.16" x2="98.55" y2="574.14" />
		<line class="cls-1" x1="102.75" y1="571.57" x2="97.39" y2="566.01" />
		<line class="cls-1" x1="99.33" y1="573.44" x2="97.37" y2="565.97" />
		<line class="cls-1" x1="70.07" y1="580.58" x2="70.11" y2="572.21" />
		<line class="cls-1" x1="71.1" y1="580.24" x2="69.08" y2="580.24" />
		<line class="cls-1" x1="71.11" y1="572.56" x2="69.1" y2="572.56" />
		<line class="cls-1" x1="77.81" y1="580.24" x2="75.8" y2="580.23" />
		<line class="cls-1" x1="75.94" y1="572.54" x2="73.93" y2="572.54" />
		<line class="cls-1" x1="74" y1="580.24" x2="71.99" y2="580.23" />
		<line class="cls-1" x1="76.91" y1="580.05" x2="74.96" y2="572.58" />
		<line class="cls-1" x1="73.01" y1="580.01" x2="74.96" y2="572.53" />
		<line class="cls-1" x1="43.33" y1="571.94" x2="47.54" y2="564.71" />
		<line class="cls-1" x1="44.39" y1="572.17" x2="42.64" y2="571.16" />
		<line class="cls-1" x1="48.23" y1="565.52" x2="46.49" y2="564.51" />
		<line class="cls-1" x1="41.14" y1="570.68" x2="45.34" y2="563.45" />
		<line class="cls-1" x1="42.19" y1="570.91" x2="40.45" y2="569.9" />
		<line class="cls-1" x1="46.04" y1="564.26" x2="44.29" y2="563.25" />
		<line class="cls-1" x1="50.21" y1="575.51" x2="48.47" y2="574.5" />
		<line class="cls-1" x1="52.43" y1="567.91" x2="50.68" y2="566.91" />
		<line class="cls-1" x1="46.9" y1="573.61" x2="45.16" y2="572.6" />
		<line class="cls-1" x1="49.52" y1="574.9" x2="51.56" y2="567.45" />
		<line class="cls-1" x1="46.17" y1="572.92" x2="51.58" y2="567.41" />
		<line class="cls-1" x1="23.62" y1="551.59" x2="30.9" y2="547.47" />
		<line class="cls-1" x1="24.41" y1="552.31" x2="23.42" y2="550.57" />
		<line class="cls-1" x1="31.09" y1="548.51" x2="30.09" y2="546.77" />
		<line class="cls-1" x1="22.36" y1="549.39" x2="29.64" y2="545.27" />
		<line class="cls-1" x1="23.16" y1="550.12" x2="22.16" y2="548.37" />
		<line class="cls-1" x1="29.83" y1="546.32" x2="28.83" y2="544.57" />
		<line class="cls-1" x1="21.15" y1="547.34" x2="28.44" y2="543.22" />
		<line class="cls-1" x1="21.95" y1="548.07" x2="20.96" y2="546.32" />
		<line class="cls-1" x1="28.63" y1="544.27" x2="27.63" y2="542.52" />
		<line class="cls-1" x1="27.76" y1="558.14" x2="26.76" y2="556.39" />
		<line class="cls-1" x1="33.5" y1="552.7" x2="32.51" y2="550.95" />
		<line class="cls-1" x1="25.86" y1="554.83" x2="24.86" y2="553.08" />
		<line class="cls-1" x1="27.47" y1="557.26" x2="32.99" y2="551.86" />
		<line class="cls-1" x1="25.57" y1="553.86" x2="33.03" y2="551.84" />
		<line class="cls-1" x1="16.37" y1="527.23" x2="24.73" y2="527.2" />
		<line class="cls-1" x1="16.71" y1="528.25" x2="16.69" y2="526.24" />
		<line class="cls-1" x1="24.39" y1="528.21" x2="24.37" y2="526.2" />
		<line class="cls-1" x1="16.71" y1="525.21" x2="16.7" y2="523.2" />
		<line class="cls-1" x1="16.68" y1="521.39" x2="16.67" y2="519.38" />
		<line class="cls-1" x1="24.4" y1="525.14" x2="24.38" y2="523.13" />
		<line class="cls-1" x1="24.36" y1="521.33" x2="24.35" y2="519.32" />
		<line class="cls-1" x1="16.89" y1="524.3" x2="24.2" y2="520.19" />
		<line class="cls-1" x1="16.77" y1="520.3" x2="24.29" y2="524.3" />
		<line class="cls-1" x1="24.64" y1="495.11" x2="25.64" y2="493.37" />
		<line class="cls-1" x1="31.31" y1="498.93" x2="32.31" y2="497.19" />
		<line class="cls-1" x1="22.75" y1="498.42" x2="23.75" y2="496.68" />
		<line class="cls-1" x1="29.41" y1="502.24" x2="30.41" y2="500.5" />
		<line class="cls-1" x1="23.35" y1="497.73" x2="31.74" y2="497.87" />
		<line class="cls-1" x1="25.27" y1="494.21" x2="29.74" y2="501.46" />
		<line class="cls-1" x1="40.59" y1="477.34" x2="42.33" y2="476.34" />
		<line class="cls-1" x1="43.89" y1="475.43" x2="45.63" y2="474.42" />
		<line class="cls-1" x1="44.45" y1="483.99" x2="46.19" y2="482.98" />
		<line class="cls-1" x1="47.75" y1="482.07" x2="49.49" y2="481.06" />
		<line class="cls-1" x1="41.46" y1="477.05" x2="48.65" y2="481.37" />
		<line class="cls-1" x1="44.88" y1="474.96" x2="45.12" y2="483.48" />
		<line class="cls-1" x1="46.92" y1="473.29" x2="51.08" y2="480.54" />
		<line class="cls-1" x1="46.2" y1="474.09" x2="47.94" y2="473.08" />
		<line class="cls-1" x1="50.04" y1="480.74" x2="51.78" y2="479.73" />
		<line class="cls-1" x1="67.1" y1="467.44" x2="69.11" y2="467.43" />
		<line class="cls-1" x1="70.91" y1="467.43" x2="72.93" y2="467.42" />
		<line class="cls-1" x1="67.13" y1="475.12" x2="69.14" y2="475.12" />
		<line class="cls-1" x1="70.94" y1="475.11" x2="72.95" y2="475.1" />
		<line class="cls-1" x1="68.01" y1="467.62" x2="72.08" y2="474.95" />
		<line class="cls-1" x1="72.01" y1="467.52" x2="67.97" y2="475.02" />
		<line class="cls-1" x1="74.61" y1="467.08" x2="74.6" y2="475.45" />
		<line class="cls-1" x1="73.58" y1="467.42" x2="75.59" y2="467.41" />
		<line class="cls-1" x1="73.59" y1="475.1" x2="75.6" y2="475.09" />
		<line class="cls-1" x1="76.99" y1="467.09" x2="76.98" y2="475.46" />
		<line class="cls-1" x1="75.96" y1="467.43" x2="77.97" y2="467.42" />
		<line class="cls-1" x1="75.97" y1="475.11" x2="77.98" y2="475.1" />
		<line class="cls-1" x1="129.8" y1="521.33" x2="121.43" y2="521.29" />
		<line class="cls-1" x1="129.46" y1="520.3" x2="129.46" y2="522.31" />
		<line class="cls-1" x1="121.78" y1="520.29" x2="121.78" y2="522.3" />
		<line class="cls-1" x1="129.8" y1="523.57" x2="121.43" y2="523.54" />
		<line class="cls-1" x1="129.46" y1="522.54" x2="129.46" y2="524.56" />
		<line class="cls-1" x1="121.78" y1="522.53" x2="121.78" y2="524.54" />
		<line class="cls-1" x1="129.8" y1="525.82" x2="121.43" y2="525.79" />
		<line class="cls-1" x1="129.47" y1="524.8" x2="129.46" y2="526.81" />
		<line class="cls-1" x1="121.79" y1="524.78" x2="121.78" y2="526.79" />
		<line class="cls-1" x1="123.61" y1="549.55" x2="116.37" y2="545.36" />
		<line class="cls-1" x1="123.83" y1="548.5" x2="122.83" y2="550.24" />
		<line class="cls-1" x1="117.18" y1="544.66" x2="116.17" y2="546.41" />
		<line class="cls-1" x1="122.67" y1="550.59" x2="121.66" y2="552.34" />
		<line class="cls-1" x1="115.06" y1="548.39" x2="114.06" y2="550.13" />
		<line class="cls-1" x1="120.77" y1="553.9" x2="119.77" y2="555.65" />
		<line class="cls-1" x1="122.06" y1="551.29" x2="114.6" y2="549.26" />
		<line class="cls-1" x1="120.08" y1="554.64" x2="114.56" y2="549.24" />
		<circle class="cls-1" cx="1550.33" cy="1432.48" r="55.46" />
		<circle class="cls-1" cx="1550.33" cy="1432.48" r="49.48" />
		<circle class="cls-1" cx="1550.33" cy="1432.48" r="34.32" />
		<path class="cls-1" d="M1584.65,1432.62h0l-23.65-1.55a10.69,10.69,0,0,0-.73-2.29l19.84-13.2.22-.13-.1,0,.09-.06-.22.12-21.52,10.56a10.89,10.89,0,0,0-1.62-1.53l10.66-21.53.13-.22-.06.09,0-.09-.13.22-13.43,20a10.8,10.8,0,0,0-2.07-.55l-1.59-24.06v0l-1.59,24a10.81,10.81,0,0,0-2.1.49l-13.43-20-.13-.22,0,.1-.06-.09.12.22L1544,1424.4a10.88,10.88,0,0,0-1.69,1.51l-21.49-10.54-.22-.13.09.06-.09,0,.22.13,19.75,13.14a10.66,10.66,0,0,0-.8,2.32l-23.59,1.54h0l23.38,1.53a10.69,10.69,0,0,0,.53,2.62l-19.37,12.89-.22.13.1,0-.09.06.22-.12,20.74-10.18a10.9,10.9,0,0,0,1.93,2.1L1533.19,1462l-.13.22.06-.09,0,.09.13-.22,12.75-19a10.8,10.8,0,0,0,2.84.81l1.51,22.78v0l1.5-22.77a10.81,10.81,0,0,0,2.83-.77l12.78,19,.13.22,0-.1.06.09-.12-.22-10.2-20.6a10.87,10.87,0,0,0,1.92-2.05l20.84,10.22.22.13-.09-.06.09,0-.22-.13-19.43-12.93a10.85,10.85,0,0,0,.57-2.55Z" />
		<circle class="cls-1" cx="1550.48" cy="1432.96" r="7.95" />
		<rect class="cls-1" x="1442.65" y="1337.08" width="215.03" height="164.02" />
		<polyline class="cls-1" points="1476.62 1369.01 1476.62 1501.11 1454.06 1501.11 1454.06 1369.07" />
		<rect class="cls-1" x="1450.26" y="1337.02" width="30.27" height="11.97" rx="5.98" ry="5.98" />
		<path class="cls-1" d="M1475.77,1362H1455a3.58,3.58,0,1,0,0,7.16h2.05a8.59,8.59,0,0,0,16.65,0h2.05a3.58,3.58,0,0,0,0-7.16Z" />
		<rect class="cls-1" x="1456.27" y="1348.97" width="17.93" height="12.96" />
		<line class="cls-1" x1="1459.35" y1="1351.53" x2="1459.35" y2="1358.63" />
		<line class="cls-1" x1="1461.69" y1="1356.13" x2="1461.69" y2="1358.65" />
		<line class="cls-1" x1="1461.69" y1="1351.55" x2="1461.69" y2="1356.13" />
		<line class="cls-1" x1="1464.04" y1="1351.58" x2="1464.04" y2="1358.68" />
		<line class="cls-1" x1="1466.38" y1="1351.61" x2="1466.38" y2="1358.71" />
		<line class="cls-1" x1="1468.73" y1="1351.64" x2="1468.73" y2="1358.74" />
		<line class="cls-1" x1="1471.07" y1="1351.66" x2="1471.07" y2="1358.76" />
		<path class="cls-1" d="M1470,1407a11.81,11.81,0,0,0,.1-9,2.15,2.15,0,1,0-2.63-3.34,4.12,4.12,0,0,0-2.19-.65,4.06,4.06,0,0,0-2,.53,2.15,2.15,0,1,0-2.75,3.22,11.81,11.81,0,0,0-.07,9.08,2.15,2.15,0,1,0,2.67,3.31,4,4,0,0,0,4.11.07A2.15,2.15,0,1,0,1470,1407Z" />
		<path class="cls-1" d="M1470,1440a11.81,11.81,0,0,0,.1-9,2.15,2.15,0,1,0-2.63-3.34,4.12,4.12,0,0,0-2.19-.65,4.06,4.06,0,0,0-2,.53,2.15,2.15,0,1,0-2.75,3.22,11.81,11.81,0,0,0-.07,9.08,2.15,2.15,0,1,0,2.67,3.31,4,4,0,0,0,4.11.07A2.15,2.15,0,1,0,1470,1440Z" />
		<path class="cls-1" d="M1470,1473a11.81,11.81,0,0,0,.1-9,2.15,2.15,0,1,0-2.63-3.34,4.12,4.12,0,0,0-2.19-.65,4.06,4.06,0,0,0-2,.53,2.15,2.15,0,1,0-2.75,3.22,11.81,11.81,0,0,0-.07,9.08,2.15,2.15,0,1,0,2.67,3.31,4,4,0,0,0,4.11.07A2.15,2.15,0,1,0,1470,1473Z" />
		<rect class="cls-1" x="1435.75" y="1501.19" width="227.52" height="2.53" />
		<rect class="cls-1" x="1441.23" y="1503.81" width="216.57" height="6.85" />
		<polyline class="cls-1" points="1459.08 1524.67 1454.18 1524.67 1454.18 1510.67 1476.81 1510.67 1476.81 1524.67 1471.93 1524.67" />
		<rect class="cls-1" x="1459.1" y="1519.77" width="4.2" height="10.03" />
		<rect class="cls-1" x="1467.62" y="1519.77" width="4.2" height="10.03" />
		<rect class="cls-1" x="1463.34" y="1519.77" width="4.2" height="12.68" />
		<rect class="cls-1" x="1509.31" y="1337.02" width="18.5" height="11.97" rx="5.98" ry="5.98" />
		<rect class="cls-1" x="1513.16" y="1348.97" width="10.81" height="12.96" />
		<line class="cls-1" x1="1516.08" y1="1351.53" x2="1516.08" y2="1358.63" />
		<line class="cls-1" x1="1518.43" y1="1351.55" x2="1518.43" y2="1358.65" />
		<line class="cls-1" x1="1520.77" y1="1351.58" x2="1520.77" y2="1358.68" />
		<path class="cls-1" d="M1523.3,1362h-9.46a3,3,0,0,0,0,6h1.38a3.24,3.24,0,0,0,6.47,0h1.61a3,3,0,0,0,0-6Z" />
		<circle class="cls-1" cx="1502.86" cy="1352.43" r="5.89" />
		<circle class="cls-1" cx="1597.81" cy="1352.43" r="5.89" />
		<rect class="cls-1" x="1541.04" y="1337.02" width="18.5" height="11.97" rx="5.98" ry="5.98" />
		<rect class="cls-1" x="1544.89" y="1348.97" width="10.81" height="12.96" />
		<line class="cls-1" x1="1547.82" y1="1351.53" x2="1547.82" y2="1358.63" />
		<line class="cls-1" x1="1550.16" y1="1351.55" x2="1550.16" y2="1358.65" />
		<line class="cls-1" x1="1552.51" y1="1351.58" x2="1552.51" y2="1358.68" />
		<path class="cls-1" d="M1555,1362h-9.46a3,3,0,0,0,0,6h1.38a3.24,3.24,0,0,0,6.47,0H1555a3,3,0,0,0,0-6Z" />
		<circle class="cls-1" cx="1534.59" cy="1352.43" r="5.89" />
		<rect class="cls-1" x="1572.78" y="1337.02" width="18.5" height="11.97" rx="5.98" ry="5.98" />
		<rect class="cls-1" x="1576.63" y="1348.97" width="10.81" height="12.96" />
		<line class="cls-1" x1="1579.55" y1="1351.53" x2="1579.55" y2="1358.63" />
		<line class="cls-1" x1="1581.89" y1="1351.55" x2="1581.89" y2="1358.65" />
		<line class="cls-1" x1="1584.24" y1="1351.58" x2="1584.24" y2="1358.68" />
		<path class="cls-1" d="M1586.76,1362h-9.46a3,3,0,0,0,0,6h1.38a3.24,3.24,0,0,0,6.47,0h1.61a3,3,0,0,0,0-6Z" />
		<circle class="cls-1" cx="1566.32" cy="1352.43" r="5.89" />
		<line class="cls-1" x1="1472.76" y1="1361.97" x2="1514.26" y2="1361.97" />
		<line class="cls-1" x1="1585.24" y1="1361.97" x2="1626.74" y2="1361.97" />
		<line class="cls-1" x1="1520.32" y1="1361.88" x2="1576.67" y2="1361.91" />
		<polyline class="cls-1" points="1585.2 1367.95 1610.85 1367.95 1610.85 1501.05 1489.82 1501.05 1489.82 1367.95 1515.19 1367.95" />
		<line class="cls-1" x1="1553.45" y1="1367.95" x2="1578.71" y2="1367.95" />
		<line class="cls-1" x1="1521.69" y1="1367.95" x2="1546.91" y2="1367.95" />
		<polyline class="cls-1" points="1441.13 1757.36 1441.13 1510.68 1657.67 1510.68 1657.67 1705.68" />
		<polygon class="cls-1" points="1657.89 1510.77 1441.2 1510.77 1441.2 1536.3 1454.17 1536.3 1454.17 1544.02 1476.86 1544.02 1476.86 1536.3 1624.2 1536.3 1624.2 1544.02 1646.9 1544.02 1646.9 1536.3 1657.89 1536.3 1657.89 1510.77" />
		<polyline class="cls-1" points="1488.77 1757.31 1488.77 1536.45 1610.03 1536.45 1610.03 1775.77" />
		<polyline class="cls-1" points="1518.2 1559.05 1518.2 1574.13 1509.55 1574.13 1509.55 1559.05" />
		<polyline class="cls-1" points="1507.53 1550.95 1507.53 1539.52 1520.21 1539.52 1520.21 1550.97" />
		<polyline class="cls-1" points="1509.55 1757.34 1509.55 1574.14 1518.19 1574.14 1518.19 1775.8" />
		<rect class="cls-1" x="1505.36" y="1536.28" width="17.03" height="3.21" />
		<path class="cls-1" d="M1507.5,1555.94a2,2,0,0,1,2,2.55,2.07,2.07,0,0,0,2.07,2.07l.24,0a2,2,0,0,0-.1.59,2.07,2.07,0,0,0,2.07,2.07h.25a2.07,2.07,0,0,0,2.07-2.07,2,2,0,0,0-.1-.59l.24,0a27.36,27.36,0,0,1,4-4.61,2,2,0,0,0-.42-1.24h-11.9A2,2,0,0,0,1507.5,1555.94Z" />
		<path class="cls-1" d="M1520.21,1550.95h-12.67a1.87,1.87,0,1,0,0,3.75h12.67a1.87,1.87,0,1,0,0-3.75Z" />
		<polyline class="cls-1" points="1541.69 1559.02 1541.68 1574.1 1533.04 1574.1 1533.04 1559.02" />
		<polyline class="cls-1" points="1531.02 1550.92 1531.02 1539.48 1543.7 1539.48 1543.7 1550.94" />
		<polyline class="cls-1" points="1533.04 1698.23 1533.04 1574.1 1541.68 1574.1 1541.68 1757.3" />
		<rect class="cls-1" x="1528.85" y="1536.24" width="17.03" height="3.21" />
		<path class="cls-1" d="M1531,1555.9a2,2,0,0,1,2,2.55,2.07,2.07,0,0,0,2.07,2.07l.24,0a2,2,0,0,0-.1.59,2.07,2.07,0,0,0,2.07,2.07h.25a2.07,2.07,0,0,0,2.07-2.07,2,2,0,0,0-.1-.59l.24,0a27.36,27.36,0,0,1,4-4.61,2,2,0,0,0-.42-1.24h-11.9A2,2,0,0,0,1531,1555.9Z" />
		<path class="cls-1" d="M1543.7,1550.91H1531a1.87,1.87,0,1,0,0,3.75h12.67a1.87,1.87,0,1,0,0-3.75Z" />
		<polyline class="cls-1" points="1565.18 1558.98 1565.17 1574.06 1556.53 1574.06 1556.53 1558.98" />
		<polyline class="cls-1" points="1554.51 1550.88 1554.51 1539.45 1567.19 1539.45 1567.19 1550.9" />
		<polyline class="cls-1" points="1556.53 1731.42 1556.53 1574.06 1565.17 1574.06 1565.17 1694.5" />
		<rect class="cls-1" x="1552.33" y="1536.2" width="17.03" height="3.21" />
		<path class="cls-1" d="M1554.48,1555.86a2,2,0,0,1,2,2.55,2.07,2.07,0,0,0,2.07,2.07l.24,0a2,2,0,0,0-.1.59,2.07,2.07,0,0,0,2.07,2.07h.25A2.07,2.07,0,0,0,1563,1561a2,2,0,0,0-.1-.59l.24,0a27.36,27.36,0,0,1,4-4.61,2,2,0,0,0-.42-1.24h-11.9A2,2,0,0,0,1554.48,1555.86Z" />
		<path class="cls-1" d="M1567.18,1550.87h-12.67a1.87,1.87,0,1,0,0,3.75h12.67a1.87,1.87,0,1,0,0-3.75Z" />
		<polyline class="cls-1" points="1589.26 1558.94 1589.26 1574.02 1580.62 1574.02 1580.61 1558.94" />
		<polyline class="cls-1" points="1578.6 1550.84 1578.6 1539.41 1591.27 1539.41 1591.27 1550.86" />
		<polyline class="cls-1" points="1580.61 1738.77 1580.61 1574.02 1589.26 1574.02 1589.26 1716.61" />
		<rect class="cls-1" x="1576.42" y="1536.17" width="17.03" height="3.21" />
		<path class="cls-1" d="M1578.56,1555.82a2,2,0,0,1,2,2.55,2.07,2.07,0,0,0,2.07,2.07l.24,0a2,2,0,0,0-.1.59,2.07,2.07,0,0,0,2.07,2.07h.25a2.07,2.07,0,0,0,2.07-2.07,2,2,0,0,0-.1-.59l.24,0a27.36,27.36,0,0,1,4-4.61,2,2,0,0,0-.42-1.24H1579A2,2,0,0,0,1578.56,1555.82Z" />
		<path class="cls-1" d="M1591.27,1550.83H1578.6a1.87,1.87,0,1,0,0,3.75h12.67a1.87,1.87,0,1,0,0-3.75Z" />
		<rect class="cls-1" x="1437.19" y="1327.57" width="227.52" height="2.53" />
		<rect class="cls-1" x="1442.66" y="1330.19" width="216.57" height="6.85" />
		<rect class="cls-1" x="1442.66" y="1303.33" width="46.98" height="24.22" />
		<rect class="cls-1" x="1437.99" y="1296.56" width="55.72" height="6.72" rx="3.36" ry="3.36" />
		<rect class="cls-1" x="1442.72" y="1291.84" width="46.96" height="4.6" rx="2.3" ry="2.3" />
		<path class="cls-1" d="M1451,1278s0,.08,0,.11c0,7.6,6.53,13.76,14.6,13.76s14.6-6.16,14.6-13.76c0,0,0-.08,0-.11Z" />
		<rect class="cls-1" x="1449.51" y="1275.52" width="32.23" height="2.37" rx="1.18" ry="1.18" />
		<rect class="cls-1" x="1449.51" y="1273.1" width="32.23" height="2.37" rx="1.18" ry="1.18" />
		<path class="cls-1" d="M1451.78,1273.11c1.9-3.15,7.4-5.42,13.88-5.42s11.86,2.22,13.82,5.32" />
		<polyline class="cls-1" points="1462.56 1267.84 1462.56 1266 1468.7 1266 1468.7 1267.84" />
		<path class="cls-1" d="M1469.65,1263.23h0a1.43,1.43,0,0,0-.66-.81,1.34,1.34,0,0,0,0-.16,1.38,1.38,0,0,0-1-1.32,1.29,1.29,0,0,0-.57-1s0-.05,0-.08a1.38,1.38,0,0,0-.87-1.28.91.91,0,0,0,0-.09,1,1,0,1,0-1.9.1,1.38,1.38,0,0,0-.85,1.27s0,.06,0,.1a1.3,1.3,0,0,0-.53,1,1.38,1.38,0,0,0-1,1.33s0,.08,0,.12a1.43,1.43,0,0,0-.74.86,1.38,1.38,0,0,0,.07,2.75h8a1.38,1.38,0,0,0,0-2.76Z" />
		<line class="cls-1" x1="1610.23" y1="1314.63" x2="1489.1" y2="1314.63" />
		<line class="cls-1" x1="1489.67" y1="1307.93" x2="1610.15" y2="1307.93" />
		<line class="cls-1" x1="1489.73" y1="1303.3" x2="1610.82" y2="1303.3" />
		<path class="cls-1" d="M1518.79,1227.22V1226a30.42,30.42,0,0,1,26-30.17" />
		<path class="cls-1" d="M1528.9,1231.5l.2,71.87-10.09,0-.2-71.83" />
		<path class="cls-1" d="M1545.59,1205.89a20.32,20.32,0,0,0-16.71,20v1.17" />
		<path class="cls-1" d="M1569.39,1227.07v-1.79a20.32,20.32,0,0,0-16.75-19.4" />
		<polyline class="cls-1" points="1579.49 1231.33 1579.71 1303.21 1569.62 1303.24 1569.4 1231.35" />
		<path class="cls-1" d="M1553.29,1195.77l1,.16,1,.2,1,.23,1,.26,1,.3,1,.33,1,.36.94.39.93.42.91.45.89.48.87.51.86.54.84.57.82.59.79.62.77.65.75.67.73.69.71.72.68.74.66.76.63.78.61.81.58.83q.28.42.55.85t.53.87q.26.44.5.88t.47.9q.23.46.44.92t.41.94q.2.47.38,1t.35,1q.17.49.31,1t.28,1q.13.5.25,1t.21,1q.1.52.18,1t.14,1q.06.53.11,1.06c0,.22,0,.43.06.65s0,.25,0,.38V1227" />
		<rect class="cls-1" x="1516.88" y="1227.19" width="13.95" height="2.13" rx="1.06" ry="1.06" transform="translate(-3.72 4.62) rotate(-0.17)" />
		<rect class="cls-1" x="1516.89" y="1229.34" width="13.95" height="2.13" rx="1.06" ry="1.06" transform="translate(-3.72 4.62) rotate(-0.17)" />
		<rect class="cls-1" x="1518.81" y="1231.45" width="10.08" height="1.38" transform="translate(-3.73 4.62) rotate(-0.17)" />
		<rect class="cls-1" x="1567.48" y="1227.04" width="13.95" height="2.13" rx="1.06" ry="1.06" transform="translate(-3.71 4.78) rotate(-0.17)" />
		<rect class="cls-1" x="1567.49" y="1229.18" width="13.95" height="2.13" rx="1.06" ry="1.06" transform="translate(-3.72 4.78) rotate(-0.17)" />
		<rect class="cls-1" x="1569.41" y="1231.31" width="10.08" height="1.38" transform="translate(-3.73 4.78) rotate(-0.17)" />
		<rect class="cls-1" x="1544.87" y="1191.43" width="8.39" height="16.3" rx="4.19" ry="4.19" transform="matrix(1, 0, 0, 1, -3.63, 4.7)" />
		<path class="cls-1" d="M1552.6,1193.2h2.67a5,5,0,0,0,5-4.92l-22.4.07a5,5,0,0,0,5,4.89h2.72" />
		<path class="cls-1" d="M1554.77,1185.81l6.31,0a1.19,1.19,0,0,1,1.19,1.19h0a1.19,1.19,0,0,1-1.19,1.19l-24,.07a1.19,1.19,0,0,1-1.19-1.19h0a1.19,1.19,0,0,1,1.19-1.19l6,0" />
		<path class="cls-1" d="M1506.34,1169.19a4.29,4.29,0,0,0,4.13,4.44" />
		<rect class="cls-1" x="1496.61" y="1291.95" width="14.84" height="11.14" />
		<polygon class="cls-1" points="1508.26 1176.28 1499.46 1176.28 1498.33 1291.88 1509.39 1291.88 1508.26 1176.28" />
		<rect class="cls-1" x="1496.58" y="1173.59" width="14.54" height="2.68" rx="1.34" ry="1.34" />
		<rect class="cls-1" x="1493.09" y="1165.04" width="21.52" height="8.61" rx="4.3" ry="4.3" />
		<path class="cls-1" d="M1501.52,1169.21a4.29,4.29,0,0,1-4.13,4.44" />
		<rect class="cls-1" x="1496.83" y="1157.58" width="14.07" height="7.38" />
		<path class="cls-1" d="M1510.37,1157.57h-13a1.33,1.33,0,0,1-1.47-1.28h0a1.41,1.41,0,0,1,1.47-1.34h13a1.41,1.41,0,0,1,1.47,1.34h0A1.33,1.33,0,0,1,1510.37,1157.57Z" />
		<path class="cls-1" d="M1597,1169.2a4.29,4.29,0,0,0,4.13,4.44" />
		<rect class="cls-1" x="1587.3" y="1291.96" width="14.84" height="11.14" />
		<polygon class="cls-1" points="1598.94 1176.28 1590.15 1176.28 1589.02 1291.88 1600.07 1291.88 1598.94 1176.28" />
		<rect class="cls-1" x="1587.27" y="1173.6" width="14.54" height="2.68" rx="1.34" ry="1.34" />
		<rect class="cls-1" x="1583.78" y="1165.05" width="21.52" height="8.61" rx="4.3" ry="4.3" />
		<path class="cls-1" d="M1592.21,1169.22a4.29,4.29,0,0,1-4.13,4.44" />
		<rect class="cls-1" x="1587.51" y="1157.58" width="14.07" height="7.38" />
		<path class="cls-1" d="M1601.05,1157.57h-13a1.33,1.33,0,0,1-1.47-1.28h0A1.41,1.41,0,0,1,1588,1155h13a1.41,1.41,0,0,1,1.47,1.34h0A1.33,1.33,0,0,1,1601.05,1157.57Z" />
		<path class="cls-1" d="M1531.46,1120.48v-2.54a54.62,54.62,0,0,0-34.55,32.64l0,0h2.28A54.57,54.57,0,0,1,1531.46,1120.48Z" />
		<path class="cls-1" d="M1531.46,1127.83v-7.35a54.57,54.57,0,0,0-32.22,30.11H1507A45.28,45.28,0,0,1,1531.46,1127.83Z" />
		<path class="cls-1" d="M1531.91,1150.58h-35V1155h4.44a2.25,2.25,0,1,0,4.5,0H1521a2.25,2.25,0,0,0,4.5,0H1533" />
		<ellipse class="cls-1" cx="1549.04" cy="1148.08" rx="11.47" ry="16.33" />
		<path class="cls-1" d="M1539.44,1130.29c-4.39,3.91-7.26,10.42-7.26,17.8s2.93,14,7.4,17.92a5,5,0,0,0-3.79,4.78,5.11,5.11,0,0,0,5.23,5,5.39,5.39,0,0,1,8,0,5.4,5.4,0,0,1,8,0,5.11,5.11,0,0,0,5.23-5,5,5,0,0,0-3.79-4.78c4.47-3.89,7.4-10.47,7.4-17.92s-2.84-13.81-7.18-17.73" />
		<path class="cls-1" d="M1538.83,1175.26a4.82,4.82,0,0,0-.14,1.17,5.11,5.11,0,0,0,4.27,4.94,3.22,3.22,0,0,0-.87,2.19,3.41,3.41,0,0,0,3.49,3.33,3.64,3.64,0,0,1,3.23,0,3.64,3.64,0,0,1,3.23,0,3.41,3.41,0,0,0,3.49-3.33,3.22,3.22,0,0,0-.83-2.15,5.12,5.12,0,0,0,4.54-5,4.83,4.83,0,0,0-.11-1" />
		<path class="cls-1" d="M1557.59,1123.8a4.29,4.29,0,0,0-.9.1,2.71,2.71,0,0,0,0-.46,3,3,0,0,0-3-2.9h-9.31a3,3,0,0,0-3,2.9,2.71,2.71,0,0,0,0,.46,4.29,4.29,0,0,0-.9-.1,3.32,3.32,0,1,0,0,6.59,4.14,4.14,0,0,1,5.7,0,4.14,4.14,0,0,1,5.7,0,4.14,4.14,0,0,1,5.7,0,3.32,3.32,0,1,0,0-6.59Z" />
		<path class="cls-1" d="M1532.24,1150.9a15.25,15.25,0,0,1-5.62-11.8,15.5,15.5,0,0,1,12.73-15.13" />
		<path class="cls-1" d="M1565.87,1150.71a15.24,15.24,0,0,0,5.44-11.65,15.5,15.5,0,0,0-12.73-15.13" />
		<path class="cls-1" d="M1565.7,1150.86l.18-.15" />
		<path class="cls-1" d="M1548.67,1113.32h0c-3.06.07-5.64,1.63-6.56,3.77l3.55,3.38h6l3.55-3.38C1554.31,1114.95,1551.73,1113.39,1548.67,1113.32Z" />
		<path class="cls-1" d="M1566.26,1120.48v-2.54a54.62,54.62,0,0,1,34.55,32.64l0,0h-2.28A54.57,54.57,0,0,0,1566.26,1120.48Z" />
		<path class="cls-1" d="M1566.25,1127.64v-7.16a54.57,54.57,0,0,1,32.22,30.11h-7.79a45.37,45.37,0,0,0-24.2-22.66" />
		<path class="cls-1" d="M1565.81,1150.58h35V1155h-4.44a2.25,2.25,0,1,1-4.5,0h-15.14a2.25,2.25,0,0,1-4.5,0h-7.53" />
		<polyline class="cls-1" points="1480.15 1272.98 1480.15 1150.58 1531.44 1150.58" />
		<line class="cls-1" x1="1480.15" y1="1291.8" x2="1480.15" y2="1277.9" />
		<polyline class="cls-1" points="1565.49 1150.58 1618.58 1150.58 1618.58 1273.1" />
		<polyline class="cls-1" points="1496.84 1150.56 1480.15 1150.56 1480.15 1142.63 1497.72 1142.63 1497.72 1148.66" />
		<path class="cls-1" d="M1484,1135.52a3.09,3.09,0,0,1-.24-.86l-1.76-10.59" />
		<path class="cls-1" d="M1496.23,1124l-2,10.69a3.11,3.11,0,0,1-.22.78" />
		<line class="cls-1" x1="1491.73" y1="1099.1" x2="1491.73" y2="1101.55" />
		<line class="cls-1" x1="1486.7" y1="1101.55" x2="1486.7" y2="1099.12" />
		<path class="cls-1" d="M1493.49,1095.82a4.57,4.57,0,0,1-.4.9h0l-3.63,6.29a.28.28,0,0,1-.48,0l-3.63-6.29h0a4.57,4.57,0,0,1-.4-.91" />
		<rect class="cls-1" x="1483.37" y="1093.61" width="11.69" height="2.15" rx="1.08" ry="1.08" />
		<path class="cls-1" d="M1493.6,1093.57a4.48,4.48,0,0,0-3.32-3.43,1.08,1.08,0,1,0-2.12,0,4.48,4.48,0,0,0-3.33,3.45" />
		<rect class="cls-1" x="1482.96" y="1135.34" width="12.32" height="3.6" rx="1.8" ry="1.8" />
		<rect class="cls-1" x="1484.21" y="1138.98" width="9.49" height="3.6" rx="1.8" ry="1.8" />
		<path class="cls-1" d="M1487.86,1101.28a10.6,10.6,0,0,0-9,7.74,2.61,2.61,0,0,0-1.07,4.6,3.61,3.61,0,0,0,1.49,3.59,2.73,2.73,0,0,0,.65,4.11,1.8,1.8,0,1,0,2.91,0,2.73,2.73,0,0,0,.66-4.11,3.64,3.64,0,0,0,1.54-2.85,3.23,3.23,0,0,1,4,.94,2.59,2.59,0,0,1,3.88-.89l.25,0a3.64,3.64,0,0,0,1.54,2.82,2.73,2.73,0,0,0,.65,4.11,1.8,1.8,0,1,0,2.91,0,2.73,2.73,0,0,0,.66-4.11,3.62,3.62,0,0,0,1.52-3.36,2.61,2.61,0,0,0-1.14-4.64,10.6,10.6,0,0,0-9-7.93" />
		<path class="cls-1" d="M1579.82,1099.05c-3.8-11.11-16-19.24-30.4-19.24s-26.6,8.13-30.4,19.24a45.57,45.57,0,0,1,60.8,0Z" />
		<path class="cls-1" d="M1549.42,1087.43a46.55,46.55,0,0,0-30.4,11.62c-11.71,10-19.73,25.66-21.23,43.58" />
		<path class="cls-1" d="M1610.88,1101.28a10.6,10.6,0,0,1,9,7.74,2.61,2.61,0,0,1,1.07,4.6,3.61,3.61,0,0,1-1.49,3.59,2.73,2.73,0,0,1-.65,4.11,1.8,1.8,0,1,1-2.91,0,2.73,2.73,0,0,1-.66-4.11,3.64,3.64,0,0,1-1.54-2.85,3.23,3.23,0,0,0-4,.94,2.59,2.59,0,0,0-3.88-.89l-.25,0a3.64,3.64,0,0,1-1.54,2.82,2.73,2.73,0,0,1-.65,4.11,1.8,1.8,0,1,1-2.91,0,2.73,2.73,0,0,1-.66-4.11,3.62,3.62,0,0,1-1.52-3.36,2.61,2.61,0,0,1,1.14-4.64,10.6,10.6,0,0,1,9-7.93" />
		<path class="cls-1" d="M1549.32,1087.43a46.55,46.55,0,0,1,30.4,11.62c11.71,10,19.73,25.66,21.23,43.58" />
		<line class="cls-1" x1="1573.17" y1="1393.5" x2="1569.84" y2="1399.25" />
		<line class="cls-1" x1="1572.33" y1="1393.32" x2="1573.72" y2="1394.12" />
		<line class="cls-1" x1="1569.29" y1="1398.61" x2="1570.67" y2="1399.4" />
		<line class="cls-1" x1="1589.06" y1="1408.94" x2="1583.3" y2="1412.25" />
		<line class="cls-1" x1="1588.42" y1="1408.37" x2="1589.23" y2="1409.75" />
		<line class="cls-1" x1="1583.15" y1="1411.42" x2="1583.95" y2="1412.81" />
		<line class="cls-1" x1="1589.96" y1="1410.48" x2="1584.2" y2="1413.79" />
		<line class="cls-1" x1="1589.32" y1="1409.91" x2="1590.12" y2="1411.29" />
		<line class="cls-1" x1="1584.04" y1="1412.96" x2="1584.84" y2="1414.34" />
		<line class="cls-1" x1="1574.89" y1="1470.17" x2="1573.5" y2="1470.95" />
		<line class="cls-1" x1="1570.61" y1="1465.57" x2="1569.21" y2="1466.35" />
		<line class="cls-1" x1="1572.25" y1="1471.65" x2="1570.86" y2="1472.43" />
		<line class="cls-1" x1="1574.2" y1="1470.39" x2="1569.94" y2="1465.97" />
		<line class="cls-1" x1="1571.48" y1="1471.87" x2="1569.92" y2="1465.94" />
		<line class="cls-1" x1="1548.24" y1="1477.55" x2="1548.27" y2="1470.9" />
		<line class="cls-1" x1="1549.05" y1="1477.28" x2="1547.46" y2="1477.28" />
		<line class="cls-1" x1="1549.07" y1="1471.18" x2="1547.47" y2="1471.18" />
		<line class="cls-1" x1="1554.39" y1="1477.27" x2="1552.79" y2="1477.27" />
		<line class="cls-1" x1="1552.9" y1="1471.16" x2="1551.31" y2="1471.16" />
		<line class="cls-1" x1="1551.36" y1="1477.27" x2="1549.76" y2="1477.27" />
		<line class="cls-1" x1="1553.67" y1="1477.13" x2="1552.12" y2="1471.19" />
		<line class="cls-1" x1="1550.58" y1="1477.09" x2="1552.12" y2="1471.16" />
		<line class="cls-1" x1="1527" y1="1470.69" x2="1530.34" y2="1464.94" />
		<line class="cls-1" x1="1527.84" y1="1470.87" x2="1526.46" y2="1470.07" />
		<line class="cls-1" x1="1530.89" y1="1465.59" x2="1529.51" y2="1464.79" />
		<line class="cls-1" x1="1525.26" y1="1469.69" x2="1528.6" y2="1463.94" />
		<line class="cls-1" x1="1526.1" y1="1469.86" x2="1524.71" y2="1469.07" />
		<line class="cls-1" x1="1529.15" y1="1464.58" x2="1527.77" y2="1463.79" />
		<line class="cls-1" x1="1532.47" y1="1473.52" x2="1531.08" y2="1472.72" />
		<line class="cls-1" x1="1534.23" y1="1467.48" x2="1532.84" y2="1466.69" />
		<line class="cls-1" x1="1529.84" y1="1472.01" x2="1528.46" y2="1471.21" />
		<line class="cls-1" x1="1531.92" y1="1473.04" x2="1533.54" y2="1467.12" />
		<line class="cls-1" x1="1529.26" y1="1471.46" x2="1533.55" y2="1467.09" />
		<line class="cls-1" x1="1511.34" y1="1454.52" x2="1517.13" y2="1451.25" />
		<line class="cls-1" x1="1511.98" y1="1455.1" x2="1511.19" y2="1453.71" />
		<line class="cls-1" x1="1517.28" y1="1452.08" x2="1516.49" y2="1450.69" />
		<line class="cls-1" x1="1510.34" y1="1452.78" x2="1516.13" y2="1449.5" />
		<line class="cls-1" x1="1510.98" y1="1453.35" x2="1510.19" y2="1451.97" />
		<line class="cls-1" x1="1516.28" y1="1450.34" x2="1515.49" y2="1448.95" />
		<line class="cls-1" x1="1509.39" y1="1451.15" x2="1515.17" y2="1447.88" />
		<line class="cls-1" x1="1510.02" y1="1451.72" x2="1509.23" y2="1450.34" />
		<line class="cls-1" x1="1515.33" y1="1448.71" x2="1514.53" y2="1447.32" />
		<line class="cls-1" x1="1514.63" y1="1459.72" x2="1513.84" y2="1458.34" />
		<line class="cls-1" x1="1519.2" y1="1455.4" x2="1518.41" y2="1454.01" />
		<line class="cls-1" x1="1513.13" y1="1457.09" x2="1512.34" y2="1455.71" />
		<line class="cls-1" x1="1514.4" y1="1459.03" x2="1518.79" y2="1454.74" />
		<line class="cls-1" x1="1512.9" y1="1456.33" x2="1518.82" y2="1454.72" />
		<line class="cls-1" x1="1505.59" y1="1435.18" x2="1512.23" y2="1435.15" />
		<line class="cls-1" x1="1505.86" y1="1435.99" x2="1505.84" y2="1434.39" />
		<line class="cls-1" x1="1511.96" y1="1435.95" x2="1511.95" y2="1434.35" />
		<line class="cls-1" x1="1505.86" y1="1433.57" x2="1505.85" y2="1431.97" />
		<line class="cls-1" x1="1505.84" y1="1430.54" x2="1505.82" y2="1428.94" />
		<line class="cls-1" x1="1511.96" y1="1433.52" x2="1511.95" y2="1431.92" />
		<line class="cls-1" x1="1511.94" y1="1430.49" x2="1511.93" y2="1428.89" />
		<line class="cls-1" x1="1506" y1="1432.85" x2="1511.81" y2="1429.59" />
		<line class="cls-1" x1="1505.9" y1="1429.67" x2="1511.88" y2="1432.85" />
		<line class="cls-1" x1="1512.16" y1="1409.66" x2="1512.96" y2="1408.28" />
		<line class="cls-1" x1="1517.45" y1="1412.7" x2="1518.25" y2="1411.31" />
		<line class="cls-1" x1="1510.65" y1="1412.29" x2="1511.45" y2="1410.91" />
		<line class="cls-1" x1="1515.95" y1="1415.33" x2="1516.74" y2="1413.94" />
		<line class="cls-1" x1="1511.14" y1="1411.74" x2="1517.8" y2="1411.85" />
		<line class="cls-1" x1="1512.66" y1="1408.95" x2="1516.21" y2="1414.71" />
		<line class="cls-1" x1="1524.83" y1="1395.55" x2="1526.21" y2="1394.75" />
		<line class="cls-1" x1="1527.45" y1="1394.03" x2="1528.83" y2="1393.23" />
		<line class="cls-1" x1="1527.89" y1="1400.83" x2="1529.27" y2="1400.03" />
		<line class="cls-1" x1="1530.51" y1="1399.31" x2="1531.89" y2="1398.51" />
		<line class="cls-1" x1="1525.52" y1="1395.32" x2="1531.23" y2="1398.75" />
		<line class="cls-1" x1="1528.23" y1="1393.66" x2="1528.43" y2="1400.43" />
		<line class="cls-1" x1="1529.85" y1="1392.33" x2="1533.16" y2="1398.09" />
		<line class="cls-1" x1="1529.28" y1="1392.97" x2="1530.66" y2="1392.17" />
		<line class="cls-1" x1="1532.33" y1="1398.25" x2="1533.71" y2="1397.45" />
		<line class="cls-1" x1="1545.88" y1="1387.69" x2="1547.48" y2="1387.68" />
		<line class="cls-1" x1="1548.91" y1="1387.68" x2="1550.51" y2="1387.67" />
		<line class="cls-1" x1="1545.9" y1="1393.79" x2="1547.5" y2="1393.78" />
		<line class="cls-1" x1="1548.93" y1="1393.78" x2="1550.53" y2="1393.77" />
		<line class="cls-1" x1="1546.6" y1="1387.83" x2="1549.83" y2="1393.65" />
		<line class="cls-1" x1="1549.78" y1="1387.75" x2="1546.57" y2="1393.71" />
		<line class="cls-1" x1="1551.84" y1="1387.4" x2="1551.84" y2="1394.05" />
		<line class="cls-1" x1="1551.03" y1="1387.67" x2="1552.63" y2="1387.66" />
		<line class="cls-1" x1="1551.04" y1="1393.77" x2="1552.63" y2="1393.76" />
		<line class="cls-1" x1="1553.73" y1="1387.41" x2="1553.73" y2="1394.06" />
		<line class="cls-1" x1="1552.92" y1="1387.68" x2="1554.52" y2="1387.67" />
		<line class="cls-1" x1="1552.93" y1="1393.78" x2="1554.52" y2="1393.77" />
		<line class="cls-1" x1="1595.68" y1="1430.49" x2="1589.03" y2="1430.46" />
		<line class="cls-1" x1="1595.41" y1="1429.67" x2="1595.41" y2="1431.27" />
		<line class="cls-1" x1="1589.31" y1="1429.66" x2="1589.31" y2="1431.26" />
		<line class="cls-1" x1="1595.68" y1="1432.27" x2="1589.03" y2="1432.24" />
		<line class="cls-1" x1="1595.41" y1="1431.45" x2="1595.41" y2="1433.05" />
		<line class="cls-1" x1="1589.31" y1="1431.44" x2="1589.31" y2="1433.04" />
		<line class="cls-1" x1="1595.68" y1="1434.06" x2="1589.04" y2="1434.03" />
		<line class="cls-1" x1="1595.42" y1="1433.24" x2="1595.41" y2="1434.84" />
		<line class="cls-1" x1="1589.32" y1="1433.23" x2="1589.31" y2="1434.83" />
		<line class="cls-1" x1="1590.76" y1="1452.9" x2="1585.01" y2="1449.57" />
		<line class="cls-1" x1="1590.94" y1="1452.07" x2="1590.14" y2="1453.45" />
		<line class="cls-1" x1="1585.65" y1="1449.02" x2="1584.86" y2="1450.4" />
		<line class="cls-1" x1="1590.01" y1="1453.73" x2="1589.22" y2="1455.12" />
		<line class="cls-1" x1="1583.98" y1="1451.98" x2="1583.18" y2="1453.37" />
		<line class="cls-1" x1="1588.51" y1="1456.36" x2="1587.71" y2="1457.74" />
		<line class="cls-1" x1="1589.53" y1="1454.28" x2="1583.61" y2="1452.67" />
		<line class="cls-1" x1="1587.96" y1="1456.95" x2="1583.58" y2="1452.65" />
		<path class="cls-1" d="M1098.84,323.4v-2.19a52.94,52.94,0,0,1,45.31-52.51" />
		<line class="cls-1" x1="1099.14" y1="429.82" x2="1098.86" y2="330.94" />
		<path class="cls-1" d="M1116.42,330.83l.21,75.21" />
		<path class="cls-1" d="M1145.47,286.27a35.36,35.36,0,0,0-29.08,34.88v2" />
		<path class="cls-1" d="M1186.88,323.13V320a35.36,35.36,0,0,0-29.15-33.75" />
		<line class="cls-1" x1="1187.14" y1="407.33" x2="1186.91" y2="330.57" />
		<line class="cls-1" x1="1204.47" y1="330.55" x2="1204.77" y2="429.18" />
		<path class="cls-1" d="M1158.88,268.66q.91.12,1.81.28t1.79.34q.89.19,1.76.4t1.74.46q.86.24,1.72.52t1.69.57q.84.3,1.67.63t1.64.68q.81.35,1.61.74t1.58.79q.78.41,1.55.84t1.52.89q.75.46,1.49.94t1.45,1q.72.5,1.42,1t1.38,1.08q.68.55,1.35,1.12t1.31,1.17q.64.59,1.27,1.21t1.23,1.25q.6.63,1.19,1.29t1.14,1.33q.56.67,1.1,1.37t1.06,1.4q.52.71,1,1.44t1,1.47q.47.75.92,1.51t.87,1.54q.42.78.82,1.57t.76,1.6q.37.81.71,1.63t.66,1.66q.32.84.6,1.68t.55,1.71q.26.86.49,1.73t.43,1.76q.2.89.37,1.78t.31,1.8q.14.91.25,1.82t.19,1.84c0,.38.06.75.1,1.12,0,.22.05.44.07.66v4.78" />
		<rect class="cls-1" x="1095.51" y="323.34" width="24.27" height="3.7" rx="1.79" ry="1.79" transform="translate(-0.98 3.36) rotate(-0.17)" />
		<rect class="cls-1" x="1095.52" y="327.08" width="24.27" height="3.7" rx="1.79" ry="1.79" transform="translate(-0.99 3.36) rotate(-0.17)" />
		<rect class="cls-1" x="1098.87" y="330.75" width="17.54" height="2.41" transform="translate(-1 3.36) rotate(-0.17)" />
		<rect class="cls-1" x="1183.57" y="323.07" width="24.27" height="3.7" rx="1.79" ry="1.79" transform="translate(-0.98 3.63) rotate(-0.17)" />
		<rect class="cls-1" x="1183.58" y="326.81" width="24.27" height="3.7" rx="1.79" ry="1.79" transform="translate(-0.99 3.63) rotate(-0.17)" />
		<rect class="cls-1" x="1186.93" y="330.51" width="17.54" height="2.41" transform="translate(-1 3.63) rotate(-0.17)" />
		<rect class="cls-1" x="1144.23" y="261.1" width="14.6" height="28.37" rx="7.06" ry="7.06" transform="translate(-0.83 3.49) rotate(-0.17)" />
		<path class="cls-1" d="M1157.68,264.18h4.65a8.73,8.73,0,0,0,8.67-8.56l-39,.12a8.73,8.73,0,0,0,8.72,8.51h4.73" />
		<path class="cls-1" d="M1161.44,251.33l11,0a2.08,2.08,0,0,1,2.08,2.06h0a2.08,2.08,0,0,1-2.06,2.08l-41.79.13a2.08,2.08,0,0,1-2.08-2.06h0a2.08,2.08,0,0,1,2.06-2.08l10.38,0" />
		<path class="cls-1" d="M1077.17,222.41a7.46,7.46,0,0,0,7.18,7.72" />
		<polyline class="cls-1" points="1060.24 447.81 1060.24 436.05 1086.06 436.05 1086.06 452.63" />
		<polyline class="cls-1" points="1082.32 420.18 1080.5 234.73 1065.2 234.73 1063.61 397.05" />
		<polyline class="cls-1" points="1063.61 397.05 1063.23 435.91 1082.47 435.91 1082.32 420.18" />
		<rect class="cls-1" x="1060.19" y="230.06" width="25.31" height="4.66" rx="2.25" ry="2.25" />
		<rect class="cls-1" x="1054.12" y="215.18" width="37.45" height="14.98" rx="7.25" ry="7.25" />
		<path class="cls-1" d="M1068.79,222.44a7.46,7.46,0,0,1-7.18,7.72" />
		<rect class="cls-1" x="1060.61" y="202.19" width="24.48" height="12.84" />
		<path class="cls-1" d="M1084.18,202.18H1061.5a2.31,2.31,0,0,1-2.56-2.22h0a2.46,2.46,0,0,1,2.56-2.33h22.68a2.46,2.46,0,0,1,2.56,2.33h0A2.31,2.31,0,0,1,1084.18,202.18Z" />
		<path class="cls-1" d="M1235,222.42a7.46,7.46,0,0,0,7.18,7.72" />
		<polyline class="cls-1" points="1218.06 451.34 1218.06 436.06 1243.88 436.06 1243.88 446.84" />
		<polyline class="cls-1" points="1240.01 407.65 1238.32 234.75 1223.02 234.75 1221.2 420.18" />
		<polyline class="cls-1" points="1221.2 420.18 1221.05 435.93 1240.29 435.93 1240.01 407.65" />
		<rect class="cls-1" x="1218.01" y="230.07" width="25.31" height="4.66" rx="2.25" ry="2.25" />
		<rect class="cls-1" x="1211.93" y="215.19" width="37.45" height="14.98" rx="7.25" ry="7.25" />
		<path class="cls-1" d="M1226.6,222.45a7.46,7.46,0,0,1-7.18,7.72" />
		<rect class="cls-1" x="1218.43" y="202.21" width="24.48" height="12.84" />
		<path class="cls-1" d="M1242,202.19h-22.68a2.31,2.31,0,0,1-2.56-2.22h0a2.46,2.46,0,0,1,2.56-2.33H1242a2.46,2.46,0,0,1,2.56,2.33h0A2.31,2.31,0,0,1,1242,202.19Z" />
		<path class="cls-1" d="M1120.88,137.64v-4.43a95.05,95.05,0,0,0-60.12,56.8l.08,0h4A95,95,0,0,1,1120.88,137.64Z" />
		<path class="cls-1" d="M1120.88,150.43V137.64a95,95,0,0,0-56.07,52.4h13.56A78.81,78.81,0,0,1,1120.88,150.43Z" />
		<path class="cls-1" d="M1121.66,190l-43.28,0h-17.65v7.58h7.74a3.91,3.91,0,0,0,7.83,0h26.34a3.91,3.91,0,0,0,7.83,0h13.11" />
		<ellipse class="cls-1" cx="1151.48" cy="185.67" rx="19.96" ry="28.42" />
		<path class="cls-1" d="M1134.77,154.7c-7.63,6.8-12.63,18.14-12.63,31s5.11,24.41,12.88,31.19a8.74,8.74,0,0,0-6.59,8.32,8.89,8.89,0,0,0,9.1,8.66,9.27,9.27,0,0,0,7-3.11,9.39,9.39,0,0,0,14,0,9.27,9.27,0,0,0,7,3.11,8.89,8.89,0,0,0,9.1-8.66,8.74,8.74,0,0,0-6.59-8.32c7.77-6.78,12.88-18.21,12.88-31.19,0-12.76-4.94-24-12.5-30.85" />
		<path class="cls-1" d="M1133.7,233a8.39,8.39,0,0,0-.25,2,8.89,8.89,0,0,0,7.43,8.6,5.6,5.6,0,0,0-1.51,3.81,5.94,5.94,0,0,0,6.08,5.79,6.33,6.33,0,0,1,5.62,0,6.33,6.33,0,0,1,5.62,0,5.94,5.94,0,0,0,6.08-5.79,5.6,5.6,0,0,0-1.44-3.74,8.91,8.91,0,0,0,7.9-8.67,8.4,8.4,0,0,0-.19-1.77" />
		<path class="cls-1" d="M1166.36,143.41a7.46,7.46,0,0,0-1.57.17,4.72,4.72,0,0,0,.09-.8,5.19,5.19,0,0,0-5.29-5h-16.21a5.19,5.19,0,0,0-5.29,5,4.72,4.72,0,0,0,.09.8,7.46,7.46,0,0,0-1.57-.17c-3.63,0-6.58,2.57-6.58,5.73s2.94,5.73,6.58,5.73a7.21,7.21,0,0,1,9.92,0,7.21,7.21,0,0,1,9.92,0,7.21,7.21,0,0,1,9.92,0c3.63,0,6.57-2.57,6.57-5.73S1170,143.41,1166.36,143.41Z" />
		<path class="cls-1" d="M1122.24,190.58a26.54,26.54,0,0,1-9.77-20.54,27,27,0,0,1,22.15-26.32" />
		<path class="cls-1" d="M1180.77,190.24a26.52,26.52,0,0,0,9.47-20.28,27,27,0,0,0-22.15-26.32" />
		<path class="cls-1" d="M1180.46,190.5l.31-.26" />
		<path class="cls-1" d="M1150.84,125.17h0c-5.33.12-9.81,2.83-11.42,6.57l6.17,5.88h10.5l6.17-5.88C1160.65,128,1156.17,125.29,1150.84,125.17Z" />
		<path class="cls-1" d="M1181.44,137.64v-4.43a95.05,95.05,0,0,1,60.12,56.8l-.08,0h-4A95,95,0,0,0,1181.44,137.64Z" />
		<path class="cls-1" d="M1181.43,150.1V137.64a95,95,0,0,1,56.07,52.4h-13.56a79,79,0,0,0-42.11-39.44" />
		<path class="cls-1" d="M1180.66,190l43.28,0h17.65v7.58h-7.74a3.91,3.91,0,1,1-7.83,0h-26.34a3.91,3.91,0,0,1-7.83,0h-13.11" />
		<polyline class="cls-1" points="1031.59 375.85 1031.59 190.02 1120.86 190.02" />
		<line class="cls-1" x1="1031.59" y1="403.03" x2="1031.59" y2="375.85" />
		<polyline class="cls-1" points="1180.11 190.02 1272.49 190.02 1272.49 403.24" />
		<polyline class="cls-1" points="1060.64 189.98 1031.59 189.98 1031.59 176.18 1062.17 176.18 1062.17 186.68" />
		<path class="cls-1" d="M1038.33,163.81a5.37,5.37,0,0,1-.43-1.51l-3.07-18.43" />
		<path class="cls-1" d="M1059.56,143.75,1056,162.36a5.41,5.41,0,0,1-.39,1.35" />
		<line class="cls-1" x1="1051.74" y1="100.43" x2="1051.74" y2="104.68" />
		<line class="cls-1" x1="1042.99" y1="104.68" x2="1042.99" y2="100.46" />
		<path class="cls-1" d="M1054.8,94.71a8,8,0,0,1-.69,1.57h0l-6.32,10.95a.48.48,0,0,1-.83,0l-6.32-10.95h0a8,8,0,0,1-.7-1.58" />
		<rect class="cls-1" x="1037.2" y="90.87" width="20.34" height="3.75" rx="1.81" ry="1.81" />
		<path class="cls-1" d="M1055,90.8a7.8,7.8,0,0,0-5.78-6,1.87,1.87,0,1,0-3.68,0,7.8,7.8,0,0,0-5.79,6" />
		<rect class="cls-1" x="1036.48" y="163.49" width="21.45" height="6.27" rx="3.03" ry="3.03" />
		<rect class="cls-1" x="1038.65" y="169.83" width="16.51" height="6.27" rx="3.03" ry="3.03" />
		<path class="cls-1" d="M1045,104.21a18.45,18.45,0,0,0-15.67,13.47,4.54,4.54,0,0,0-1.86,8,6.28,6.28,0,0,0,2.59,6.26,4.75,4.75,0,0,0,1.14,7.15,3.13,3.13,0,1,0,5.06,0,4.75,4.75,0,0,0,1.14-7.15,6.34,6.34,0,0,0,2.67-5,4.37,4.37,0,0,0,3.16-.58,4.51,4.51,0,0,0,7.91-.26,4.52,4.52,0,0,0,2.73.93,4.43,4.43,0,0,0,.44,0,6.34,6.34,0,0,0,2.67,4.91,4.75,4.75,0,0,0,1.14,7.15,3.13,3.13,0,1,0,5.06,0,4.75,4.75,0,0,0,1.14-7.15,6.3,6.3,0,0,0,2.65-5.84,4.54,4.54,0,0,0-2-8.08,18.45,18.45,0,0,0-15.65-13.8" />
		<path class="cls-1" d="M1205,100.35c-6.62-19.33-27.79-33.48-52.91-33.48s-46.29,14.15-52.91,33.48c14.87-12.72,33.14-20.23,52.91-20.23S1190.18,87.62,1205,100.35Z" />
		<path class="cls-1" d="M1152.14,80.12c-19.76,0-38,7.51-52.91,20.23-20.37,17.43-34.34,44.66-36.95,75.84" />
		<polyline class="cls-1" points="1243.46 189.98 1272.51 189.98 1272.51 176.18 1241.92 176.18 1241.93 190.15" />
		<path class="cls-1" d="M1265.77,163.81a5.37,5.37,0,0,0,.43-1.51l3.07-18.43" />
		<path class="cls-1" d="M1244.53,143.75l3.55,18.61a5.41,5.41,0,0,0,.39,1.35" />
		<line class="cls-1" x1="1252.35" y1="100.43" x2="1252.35" y2="104.68" />
		<line class="cls-1" x1="1261.1" y1="104.68" x2="1261.1" y2="100.46" />
		<path class="cls-1" d="M1249.29,94.71a8,8,0,0,0,.69,1.57h0l6.32,10.95a.48.48,0,0,0,.83,0l6.32-10.95h0a8,8,0,0,0,.7-1.58" />
		<rect class="cls-1" x="1246.56" y="90.87" width="20.34" height="3.75" rx="1.81" ry="1.81" transform="translate(2513.45 185.5) rotate(180)" />
		<path class="cls-1" d="M1249.1,90.8a7.8,7.8,0,0,1,5.78-6,1.87,1.87,0,1,1,3.68,0,7.8,7.8,0,0,1,5.79,6" />
		<rect class="cls-1" x="1246.17" y="163.49" width="21.45" height="6.27" rx="3.03" ry="3.03" transform="translate(2513.79 333.25) rotate(180)" />
		<rect class="cls-1" x="1248.93" y="169.83" width="16.51" height="6.27" rx="3.03" ry="3.03" transform="translate(2514.38 345.93) rotate(180)" />
		<path class="cls-1" d="M1259.09,104.21a18.45,18.45,0,0,1,15.67,13.47,4.54,4.54,0,0,1,1.86,8,6.28,6.28,0,0,1-2.59,6.26,4.75,4.75,0,0,1-1.14,7.15,3.13,3.13,0,1,1-5.06,0,4.75,4.75,0,0,1-1.14-7.15,6.34,6.34,0,0,1-2.67-5,4.37,4.37,0,0,1-3.16-.58,4.51,4.51,0,0,1-7.91-.26,4.52,4.52,0,0,1-2.73.93,4.43,4.43,0,0,1-.44,0,6.34,6.34,0,0,1-2.67,4.91,4.75,4.75,0,0,1-1.14,7.15,3.13,3.13,0,1,1-5.06,0,4.75,4.75,0,0,1-1.14-7.15,6.3,6.3,0,0,1-2.65-5.84,4.54,4.54,0,0,1,2-8.08,18.45,18.45,0,0,1,15.65-13.8" />
		<path class="cls-1" d="M1152,80.12c19.76,0,38,7.51,52.91,20.23,20.37,17.43,34.34,44.66,36.95,75.84" />
		<path class="cls-1" d="M474,1370.83v-2a48,48,0,0,1,41.05-47.58" />
		<line class="cls-1" x1="474.29" y1="1467.26" x2="474.03" y2="1377.67" />
		<path class="cls-1" d="M489.95,1377.57l.19,68.15" />
		<path class="cls-1" d="M516.27,1337.19a32,32,0,0,0-26.35,31.61v1.84" />
		<path class="cls-1" d="M553.79,1370.59v-2.83a32,32,0,0,0-26.41-30.58" />
		<line class="cls-1" x1="554.02" y1="1446.88" x2="553.81" y2="1377.33" />
		<line class="cls-1" x1="569.73" y1="1377.31" x2="570" y2="1466.67" />
		<path class="cls-1" d="M528.42,1321.24l1.64.25,1.62.31,1.6.36,1.58.42,1.56.47,1.53.52,1.51.57,1.49.62,1.46.67q.72.35,1.43.72t1.41.76q.7.39,1.38.81t1.35.85q.67.44,1.32.89t1.29.94q.63.48,1.25,1t1.22,1q.6.52,1.19,1.06t1.15,1.09q.57.56,1.11,1.13t1.08,1.17q.53.59,1,1.2t1,1.24q.49.63,1,1.27t.92,1.3q.45.66.87,1.33t.83,1.36q.4.69.78,1.39t.74,1.42q.36.72.69,1.45t.64,1.48q.31.75.6,1.5t.55,1.52q.26.77.5,1.55t.44,1.57q.21.79.39,1.59t.34,1.61q.16.81.28,1.63t.23,1.65q.1.83.17,1.67c0,.34.06.68.09,1s0,.4.06.6v4.33" />
		<rect class="cls-1" x="471" y="1370.78" width="21.99" height="3.35" rx="1.68" ry="1.68" transform="translate(-4.16 1.47) rotate(-0.17)" />
		<rect class="cls-1" x="471.01" y="1374.17" width="21.99" height="3.35" rx="1.68" ry="1.68" transform="translate(-4.17 1.47) rotate(-0.17)" />
		<rect class="cls-1" x="474.04" y="1377.5" width="15.89" height="2.18" transform="translate(-4.18 1.47) rotate(-0.17)" />
		<rect class="cls-1" x="550.79" y="1370.54" width="21.99" height="3.35" rx="1.68" ry="1.68" transform="translate(-4.16 1.71) rotate(-0.17)" />
		<rect class="cls-1" x="550.8" y="1373.92" width="21.99" height="3.35" rx="1.68" ry="1.68" transform="translate(-4.17 1.71) rotate(-0.17)" />
		<rect class="cls-1" x="553.83" y="1377.28" width="15.89" height="2.18" transform="translate(-4.18 1.71) rotate(-0.17)" />
		<rect class="cls-1" x="515.14" y="1314.39" width="13.23" height="25.71" rx="6.61" ry="6.61" transform="translate(-4.02 1.59) rotate(-0.17)" />
		<path class="cls-1" d="M527.33,1317.18h4.22a7.91,7.91,0,0,0,7.85-7.76l-35.32.11a7.91,7.91,0,0,0,7.9,7.71h4.28" />
		<path class="cls-1" d="M530.74,1305.54l10,0a1.88,1.88,0,0,1,1.88,1.87h0a1.88,1.88,0,0,1-1.87,1.88l-37.86.11a1.88,1.88,0,0,1-1.88-1.87h0a1.88,1.88,0,0,1,1.87-1.88l9.41,0" />
		<path class="cls-1" d="M454.38,1279.33a6.76,6.76,0,0,0,6.51,7" />
		<polyline class="cls-1" points="439.04 1483.56 439.04 1472.9 462.44 1472.9 462.44 1487.92" />
		<polyline class="cls-1" points="459.05 1458.52 457.4 1290.5 443.54 1290.5 442.1 1437.57" />
		<polyline class="cls-1" points="442.1 1437.57 441.75 1472.78 459.19 1472.78 459.05 1458.52" />
		<rect class="cls-1" x="439" y="1286.27" width="22.93" height="4.22" rx="2.11" ry="2.11" />
		<rect class="cls-1" x="433.49" y="1272.78" width="33.94" height="13.57" rx="6.79" ry="6.79" />
		<path class="cls-1" d="M446.79,1279.36a6.76,6.76,0,0,1-6.51,7" />
		<rect class="cls-1" x="439.38" y="1261.01" width="22.18" height="11.64" />
		<path class="cls-1" d="M460.73,1261H440.19a2.09,2.09,0,0,1-2.32-2h0a2.23,2.23,0,0,1,2.32-2.11h20.55a2.23,2.23,0,0,1,2.32,2.11h0A2.09,2.09,0,0,1,460.73,1261Z" />
		<path class="cls-1" d="M597.37,1279.34a6.76,6.76,0,0,0,6.51,7" />
		<polyline class="cls-1" points="582.03 1486.76 582.03 1472.91 605.43 1472.91 605.43 1482.68" />
		<polyline class="cls-1" points="601.93 1447.17 600.39 1290.51 586.53 1290.51 584.88 1458.53" />
		<polyline class="cls-1" points="584.88 1458.53 584.74 1472.79 602.18 1472.79 601.93 1447.17" />
		<rect class="cls-1" x="581.99" y="1286.28" width="22.93" height="4.22" rx="2.11" ry="2.11" />
		<rect class="cls-1" x="576.49" y="1272.79" width="33.94" height="13.57" rx="6.79" ry="6.79" />
		<path class="cls-1" d="M589.78,1279.37a6.76,6.76,0,0,1-6.51,7" />
		<rect class="cls-1" x="582.37" y="1261.02" width="22.18" height="11.64" />
		<path class="cls-1" d="M603.73,1261H583.18a2.09,2.09,0,0,1-2.32-2h0a2.23,2.23,0,0,1,2.32-2.11h20.55A2.23,2.23,0,0,1,606,1259h0A2.09,2.09,0,0,1,603.73,1261Z" />
		<path class="cls-1" d="M494,1202.52v-4A86.12,86.12,0,0,0,439.52,1250l.07,0h3.6A86.05,86.05,0,0,1,494,1202.52Z" />
		<path class="cls-1" d="M494,1214.11v-11.59a86.05,86.05,0,0,0-50.8,47.48h12.29A71.4,71.4,0,0,1,494,1214.11Z" />
		<path class="cls-1" d="M494.69,1250l-39.22,0h-16v6.87h7a3.55,3.55,0,0,0,7.09,0h23.87a3.55,3.55,0,1,0,7.09,0h11.88" />
		<ellipse class="cls-1" cx="521.71" cy="1246.04" rx="18.09" ry="25.75" />
		<path class="cls-1" d="M506.57,1218c-6.92,6.16-11.44,16.43-11.44,28.06s4.63,22.12,11.67,28.26a7.92,7.92,0,0,0-6,7.54,8.05,8.05,0,0,0,8.24,7.85,8.4,8.4,0,0,0,6.32-2.81,8.51,8.51,0,0,0,12.64,0,8.4,8.4,0,0,0,6.32,2.81,8.05,8.05,0,0,0,8.24-7.85,7.92,7.92,0,0,0-6-7.54c7-6.14,11.67-16.5,11.67-28.26,0-11.56-4.48-21.78-11.32-28" />
		<path class="cls-1" d="M505.6,1288.89a7.6,7.6,0,0,0-.23,1.85,8.05,8.05,0,0,0,6.73,7.79,5.08,5.08,0,0,0-1.36,3.45,5.38,5.38,0,0,0,5.51,5.24,5.73,5.73,0,0,1,5.09,0,5.73,5.73,0,0,1,5.09,0,5.38,5.38,0,0,0,5.51-5.24,5.07,5.07,0,0,0-1.31-3.39,8.07,8.07,0,0,0,7.16-7.85,7.61,7.61,0,0,0-.17-1.6" />
		<path class="cls-1" d="M535.2,1207.75a6.76,6.76,0,0,0-1.42.15,4.27,4.27,0,0,0,.08-.73,4.7,4.7,0,0,0-4.79-4.57H514.37a4.7,4.7,0,0,0-4.79,4.57,4.28,4.28,0,0,0,.08.73,6.76,6.76,0,0,0-1.42-.15c-3.29,0-6,2.32-6,5.19s2.67,5.19,6,5.19a6.34,6.34,0,0,0,4.49-1.79,6.53,6.53,0,0,0,9,0,6.53,6.53,0,0,0,9,0,6.34,6.34,0,0,0,4.49,1.79c3.29,0,6-2.32,6-5.19S538.49,1207.75,535.2,1207.75Z" />
		<path class="cls-1" d="M495.22,1250.49a24,24,0,0,1-8.86-18.61A24.44,24.44,0,0,1,506.43,1208" />
		<path class="cls-1" d="M548.25,1250.18a24,24,0,0,0,8.58-18.37A24.44,24.44,0,0,0,536.76,1208" />
		<path class="cls-1" d="M548,1250.42l.28-.23" />
		<path class="cls-1" d="M521.13,1191.23h0c-4.83.11-8.89,2.56-10.35,6l5.59,5.32h9.52l5.59-5.32C530,1193.79,526,1191.33,521.13,1191.23Z" />
		<path class="cls-1" d="M548.86,1202.52v-4A86.12,86.12,0,0,1,603.33,1250l-.07,0h-3.6A86.05,86.05,0,0,0,548.86,1202.52Z" />
		<path class="cls-1" d="M548.85,1213.81v-11.29a86.05,86.05,0,0,1,50.8,47.48H587.37a71.54,71.54,0,0,0-38.15-35.74" />
		<path class="cls-1" d="M548.15,1250l39.22,0h16v6.87h-7a3.55,3.55,0,0,1-7.09,0H565.39a3.55,3.55,0,1,1-7.09,0H546.42" />
		<polyline class="cls-1" points="413.08 1418.36 413.08 1249.99 493.96 1249.99" />
		<line class="cls-1" x1="413.09" y1="1442.99" x2="413.09" y2="1418.36" />
		<polyline class="cls-1" points="547.65 1249.99 631.36 1249.99 631.36 1443.17" />
		<polyline class="cls-1" points="439.4 1249.95 413.09 1249.95 413.09 1237.44 440.8 1237.44 440.79 1246.96" />
		<path class="cls-1" d="M419.19,1226.23a4.87,4.87,0,0,1-.39-1.36l-2.78-16.7" />
		<path class="cls-1" d="M438.43,1208.06l-3.22,16.86a4.9,4.9,0,0,1-.35,1.22" />
		<line class="cls-1" x1="431.35" y1="1168.81" x2="431.35" y2="1172.66" />
		<line class="cls-1" x1="423.42" y1="1172.66" x2="423.42" y2="1168.84" />
		<path class="cls-1" d="M434.12,1163.63a7.21,7.21,0,0,1-.63,1.42h0l-5.73,9.92a.44.44,0,0,1-.76,0l-5.73-9.92h0a7.21,7.21,0,0,1-.63-1.43" />
		<rect class="cls-1" x="418.17" y="1160.15" width="18.43" height="3.4" rx="1.7" ry="1.7" />
		<path class="cls-1" d="M434.29,1160.08a7.07,7.07,0,0,0-5.24-5.41,1.7,1.7,0,1,0-3.34,0,7.07,7.07,0,0,0-5.25,5.45" />
		<rect class="cls-1" x="417.51" y="1225.95" width="19.43" height="5.68" rx="2.84" ry="2.84" />
		<rect class="cls-1" x="419.48" y="1231.69" width="14.96" height="5.68" rx="2.84" ry="2.84" />
		<path class="cls-1" d="M425.24,1172.24A16.72,16.72,0,0,0,411,1184.44a4.11,4.11,0,0,0-1.68,7.25,5.69,5.69,0,0,0,2.35,5.67,4.31,4.31,0,0,0,1,6.47,2.84,2.84,0,1,0,4.58,0,4.31,4.31,0,0,0,1-6.47,5.74,5.74,0,0,0,2.42-4.49,4,4,0,0,0,2.87-.53,4.09,4.09,0,0,0,7.17-.24,4.1,4.1,0,0,0,2.48.84,4,4,0,0,0,.4,0,5.74,5.74,0,0,0,2.42,4.45,4.31,4.31,0,0,0,1,6.47,2.84,2.84,0,1,0,4.58,0,4.31,4.31,0,0,0,1-6.47,5.71,5.71,0,0,0,2.4-5.29,4.11,4.11,0,0,0-1.8-7.32,16.72,16.72,0,0,0-14.18-12.5" />
		<path class="cls-1" d="M570.25,1168.73c-6-17.52-25.18-30.34-47.94-30.34s-41.94,12.82-47.94,30.34c13.47-11.53,30-18.33,47.94-18.33S556.77,1157.2,570.25,1168.73Z" />
		<path class="cls-1" d="M522.31,1150.4c-17.91,0-34.47,6.8-47.94,18.33-18.46,15.79-31.12,40.46-33.48,68.71" />
		<polyline class="cls-1" points="605.05 1249.95 631.37 1249.95 631.37 1237.44 603.66 1237.44 603.66 1250.11" />
		<path class="cls-1" d="M625.26,1226.23a4.87,4.87,0,0,0,.39-1.36l2.78-16.7" />
		<path class="cls-1" d="M606,1208.06l3.22,16.86a4.9,4.9,0,0,0,.35,1.22" />
		<line class="cls-1" x1="613.11" y1="1168.81" x2="613.11" y2="1172.66" />
		<line class="cls-1" x1="621.04" y1="1172.66" x2="621.04" y2="1168.84" />
		<path class="cls-1" d="M610.34,1163.63A7.21,7.21,0,0,0,611,1165h0l5.73,9.92a.44.44,0,0,0,.76,0l5.73-9.92h0a7.21,7.21,0,0,0,.63-1.43" />
		<rect class="cls-1" x="607.86" y="1160.15" width="18.43" height="3.4" rx="1.7" ry="1.7" transform="translate(1234.15 2323.7) rotate(-180)" />
		<path class="cls-1" d="M610.17,1160.08a7.07,7.07,0,0,1,5.24-5.41,1.7,1.7,0,1,1,3.34,0,7.07,7.07,0,0,1,5.25,5.45" />
		<rect class="cls-1" x="607.51" y="1225.95" width="19.43" height="5.68" rx="2.84" ry="2.84" transform="translate(1234.45 2457.57) rotate(180)" />
		<rect class="cls-1" x="610.01" y="1231.69" width="14.96" height="5.68" rx="2.84" ry="2.84" transform="translate(1234.99 2469.06) rotate(180)" />
		<path class="cls-1" d="M619.22,1172.24a16.72,16.72,0,0,1,14.19,12.21,4.11,4.11,0,0,1,1.68,7.25,5.69,5.69,0,0,1-2.35,5.67,4.31,4.31,0,0,1-1,6.47,2.84,2.84,0,1,1-4.58,0,4.31,4.31,0,0,1-1-6.47,5.74,5.74,0,0,1-2.42-4.49,5.09,5.09,0,0,0-6.39,1.48,4.1,4.1,0,0,1-3.65-2.25,4.1,4.1,0,0,1-2.48.84,4,4,0,0,1-.4,0,5.74,5.74,0,0,1-2.42,4.45,4.31,4.31,0,0,1-1,6.47,2.84,2.84,0,1,1-4.58,0,4.31,4.31,0,0,1-1-6.47,5.71,5.71,0,0,1-2.4-5.29,4.11,4.11,0,0,1,1.8-7.32,16.72,16.72,0,0,1,14.18-12.5" />
		<path class="cls-1" d="M522.15,1150.4c17.91,0,34.47,6.8,47.94,18.33,18.46,15.79,31.12,40.46,33.48,68.71" />
		<line class="cls-1" x1="1589.16" y1="702.53" x2="1583.45" y2="712.39" />
		<line class="cls-1" x1="1587.73" y1="702.23" x2="1590.1" y2="703.59" />
		<line class="cls-1" x1="1582.5" y1="711.29" x2="1584.88" y2="712.65" />
		<line class="cls-1" x1="1592.11" y1="833.98" x2="1589.72" y2="835.32" />
		<line class="cls-1" x1="1584.76" y1="826.1" x2="1582.37" y2="827.44" />
		<line class="cls-1" x1="1587.58" y1="836.53" x2="1585.19" y2="837.87" />
		<line class="cls-1" x1="1590.92" y1="834.37" x2="1583.62" y2="826.8" />
		<line class="cls-1" x1="1586.26" y1="836.91" x2="1583.59" y2="826.74" />
		<line class="cls-1" x1="1546.41" y1="846.63" x2="1546.47" y2="835.24" />
		<line class="cls-1" x1="1547.81" y1="846.18" x2="1545.07" y2="846.18" />
		<line class="cls-1" x1="1547.84" y1="835.72" x2="1545.1" y2="835.72" />
		<line class="cls-1" x1="1556.96" y1="846.17" x2="1554.22" y2="846.17" />
		<line class="cls-1" x1="1554.41" y1="835.69" x2="1551.67" y2="835.69" />
		<line class="cls-1" x1="1551.76" y1="846.17" x2="1549.02" y2="846.17" />
		<line class="cls-1" x1="1555.72" y1="845.92" x2="1553.07" y2="835.74" />
		<line class="cls-1" x1="1550.42" y1="845.86" x2="1553.07" y2="835.68" />
		<line class="cls-1" x1="1510" y1="834.88" x2="1515.73" y2="825.03" />
		<line class="cls-1" x1="1511.44" y1="835.18" x2="1509.06" y2="833.81" />
		<line class="cls-1" x1="1516.67" y1="826.13" x2="1514.3" y2="824.76" />
		<line class="cls-1" x1="1507.01" y1="833.16" x2="1512.74" y2="823.31" />
		<line class="cls-1" x1="1508.45" y1="833.46" x2="1506.08" y2="832.1" />
		<line class="cls-1" x1="1513.69" y1="824.41" x2="1511.31" y2="823.04" />
		<line class="cls-1" x1="1519.37" y1="839.73" x2="1517" y2="838.37" />
		<line class="cls-1" x1="1522.39" y1="829.38" x2="1520.01" y2="828.02" />
		<line class="cls-1" x1="1514.87" y1="837.14" x2="1512.5" y2="835.78" />
		<line class="cls-1" x1="1518.43" y1="838.9" x2="1521.2" y2="828.76" />
		<line class="cls-1" x1="1513.86" y1="836.21" x2="1521.23" y2="828.7" />
		<line class="cls-1" x1="1483.15" y1="807.16" x2="1493.07" y2="801.54" />
		<line class="cls-1" x1="1484.24" y1="808.14" x2="1482.88" y2="805.77" />
		<line class="cls-1" x1="1493.33" y1="802.97" x2="1491.97" y2="800.59" />
		<line class="cls-1" x1="1481.44" y1="804.17" x2="1491.35" y2="798.55" />
		<line class="cls-1" x1="1482.53" y1="805.15" x2="1481.17" y2="802.78" />
		<line class="cls-1" x1="1491.62" y1="799.98" x2="1490.26" y2="797.6" />
		<line class="cls-1" x1="1479.8" y1="801.38" x2="1489.72" y2="795.76" />
		<line class="cls-1" x1="1480.89" y1="802.36" x2="1479.53" y2="799.98" />
		<line class="cls-1" x1="1489.98" y1="797.19" x2="1488.62" y2="794.81" />
		<line class="cls-1" x1="1488.79" y1="816.08" x2="1487.43" y2="813.7" />
		<line class="cls-1" x1="1496.62" y1="808.67" x2="1495.26" y2="806.29" />
		<line class="cls-1" x1="1486.21" y1="811.57" x2="1484.85" y2="809.19" />
		<line class="cls-1" x1="1488.4" y1="814.88" x2="1495.91" y2="807.53" />
		<line class="cls-1" x1="1485.82" y1="810.25" x2="1495.97" y2="807.5" />
		<line class="cls-1" x1="1473.28" y1="773.99" x2="1484.67" y2="773.94" />
		<line class="cls-1" x1="1473.74" y1="775.38" x2="1473.72" y2="772.64" />
		<line class="cls-1" x1="1484.2" y1="775.32" x2="1484.18" y2="772.58" />
		<line class="cls-1" x1="1473.75" y1="771.23" x2="1473.73" y2="768.49" />
		<line class="cls-1" x1="1473.71" y1="766.04" x2="1473.69" y2="763.3" />
		<line class="cls-1" x1="1484.22" y1="771.14" x2="1484.2" y2="768.4" />
		<line class="cls-1" x1="1484.17" y1="765.95" x2="1484.15" y2="763.21" />
		<line class="cls-1" x1="1473.99" y1="770" x2="1483.95" y2="764.4" />
		<line class="cls-1" x1="1473.82" y1="764.55" x2="1484.07" y2="770" />
		<line class="cls-1" x1="1484.55" y1="730.24" x2="1485.92" y2="727.87" />
		<line class="cls-1" x1="1493.63" y1="735.45" x2="1494.99" y2="733.07" />
		<line class="cls-1" x1="1481.97" y1="734.75" x2="1483.33" y2="732.38" />
		<line class="cls-1" x1="1491.05" y1="739.95" x2="1492.41" y2="737.58" />
		<line class="cls-1" x1="1482.8" y1="733.81" x2="1494.22" y2="734" />
		<line class="cls-1" x1="1485.4" y1="729.02" x2="1491.5" y2="738.9" />
		<line class="cls-1" x1="1506.27" y1="706.05" x2="1508.64" y2="704.68" />
		<line class="cls-1" x1="1510.76" y1="703.44" x2="1513.13" y2="702.07" />
		<line class="cls-1" x1="1511.52" y1="715.1" x2="1513.89" y2="713.73" />
		<line class="cls-1" x1="1516.01" y1="712.49" x2="1518.38" y2="711.12" />
		<line class="cls-1" x1="1507.46" y1="705.65" x2="1517.24" y2="711.53" />
		<line class="cls-1" x1="1512.11" y1="702.8" x2="1512.44" y2="714.41" />
		<line class="cls-1" x1="1514.88" y1="700.52" x2="1520.56" y2="710.41" />
		<line class="cls-1" x1="1513.9" y1="701.62" x2="1516.27" y2="700.25" />
		<line class="cls-1" x1="1519.13" y1="710.68" x2="1521.5" y2="709.3" />
		<line class="cls-1" x1="1542.37" y1="692.56" x2="1545.11" y2="692.56" />
		<line class="cls-1" x1="1547.57" y1="692.54" x2="1550.3" y2="692.54" />
		<line class="cls-1" x1="1542.41" y1="703.03" x2="1545.15" y2="703.02" />
		<line class="cls-1" x1="1547.6" y1="703.01" x2="1550.34" y2="703" />
		<line class="cls-1" x1="1543.6" y1="692.81" x2="1549.15" y2="702.79" />
		<line class="cls-1" x1="1549.05" y1="692.67" x2="1543.55" y2="702.89" />
		<line class="cls-1" x1="1552.59" y1="692.07" x2="1552.58" y2="703.47" />
		<line class="cls-1" x1="1551.2" y1="692.53" x2="1553.94" y2="692.53" />
		<line class="cls-1" x1="1551.21" y1="702.99" x2="1553.95" y2="702.99" />
		<line class="cls-1" x1="1555.83" y1="692.09" x2="1555.82" y2="703.48" />
		<line class="cls-1" x1="1554.44" y1="692.55" x2="1557.18" y2="692.54" />
		<line class="cls-1" x1="1554.45" y1="703.01" x2="1557.19" y2="703" />
		<path class="cls-1" d="M836.37,1838.15h0L788.59,1835a21.6,21.6,0,0,0-1.47-4.62l40.09-26.68.45-.26-.2.1.18-.12-.44.25L783.7,1825a22,22,0,0,0-3.28-3.08L802,1778.39l.26-.45-.12.18.09-.19-.26.44-27.14,40.41a21.82,21.82,0,0,0-4.18-1.11l-3.21-48.62v0l-3.21,48.53a21.85,21.85,0,0,0-4.24,1l-27.14-40.41-.26-.45.1.2-.12-.18.25.44,21.47,43.36a22,22,0,0,0-3.41,3.06l-43.44-21.31-.45-.26.19.12-.19-.09.44.26,39.92,26.56a21.55,21.55,0,0,0-1.61,4.69L698,1837.7h0l47.24,3.09a21.6,21.6,0,0,0,1.07,5.29l-39.15,26.05-.45.26.2-.1-.18.12.44-.25,41.92-20.56a22,22,0,0,0,3.89,4.25l-20.59,41.57-.26.45.12-.18-.09.19.26-.44,25.76-38.36a21.83,21.83,0,0,0,5.73,1.64l3,46v0l3-46a21.85,21.85,0,0,0,5.72-1.56l25.83,38.45.26.45-.1-.2.12.18-.25-.44L781,1856.05a22,22,0,0,0,3.87-4.15L827,1872.56l.45.26-.19-.12.19.09-.44-.26-39.26-26.12a21.93,21.93,0,0,0,1.14-5.14Z" />
		<line class="cls-1" x1="813.17" y1="1759.09" x2="806.44" y2="1770.71" />
		<line class="cls-1" x1="811.48" y1="1758.74" x2="814.28" y2="1760.34" />
		<line class="cls-1" x1="805.32" y1="1769.42" x2="808.12" y2="1771.03" />
		<line class="cls-1" x1="845.29" y1="1790.3" x2="833.65" y2="1797" />
		<line class="cls-1" x1="844" y1="1789.14" x2="845.62" y2="1791.93" />
		<line class="cls-1" x1="833.33" y1="1795.32" x2="834.95" y2="1798.11" />
		<line class="cls-1" x1="847.1" y1="1793.41" x2="835.46" y2="1800.11" />
		<line class="cls-1" x1="845.81" y1="1792.25" x2="847.43" y2="1795.04" />
		<line class="cls-1" x1="835.14" y1="1798.43" x2="836.76" y2="1801.22" />
		<line class="cls-1" x1="816.65" y1="1914.03" x2="813.83" y2="1915.61" />
		<line class="cls-1" x1="807.99" y1="1904.74" x2="805.17" y2="1906.32" />
		<line class="cls-1" x1="811.31" y1="1917.03" x2="808.5" y2="1918.61" />
		<line class="cls-1" x1="815.24" y1="1914.49" x2="806.64" y2="1905.56" />
		<line class="cls-1" x1="809.76" y1="1917.49" x2="806.61" y2="1905.5" />
		<line class="cls-1" x1="762.79" y1="1928.94" x2="762.85" y2="1915.51" />
		<line class="cls-1" x1="764.43" y1="1928.41" x2="761.21" y2="1928.41" />
		<line class="cls-1" x1="764.46" y1="1916.08" x2="761.24" y2="1916.08" />
		<line class="cls-1" x1="775.22" y1="1928.4" x2="771.99" y2="1928.39" />
		<line class="cls-1" x1="772.21" y1="1916.05" x2="768.99" y2="1916.05" />
		<line class="cls-1" x1="769.09" y1="1928.4" x2="765.86" y2="1928.39" />
		<line class="cls-1" x1="773.76" y1="1928.1" x2="770.64" y2="1916.11" />
		<line class="cls-1" x1="767.51" y1="1928.03" x2="770.64" y2="1916.03" />
		<line class="cls-1" x1="719.87" y1="1915.09" x2="726.62" y2="1903.48" />
		<line class="cls-1" x1="721.56" y1="1915.45" x2="718.76" y2="1913.83" />
		<line class="cls-1" x1="727.73" y1="1904.77" x2="724.94" y2="1903.16" />
		<line class="cls-1" x1="716.35" y1="1913.06" x2="723.1" y2="1901.45" />
		<line class="cls-1" x1="718.04" y1="1913.42" x2="715.24" y2="1911.81" />
		<line class="cls-1" x1="724.21" y1="1902.75" x2="721.42" y2="1901.14" />
		<line class="cls-1" x1="730.91" y1="1920.81" x2="728.12" y2="1919.2" />
		<line class="cls-1" x1="734.47" y1="1908.61" x2="731.67" y2="1907" />
		<line class="cls-1" x1="725.61" y1="1917.76" x2="722.81" y2="1916.15" />
		<line class="cls-1" x1="729.8" y1="1919.83" x2="733.07" y2="1907.88" />
		<line class="cls-1" x1="724.42" y1="1916.65" x2="733.11" y2="1907.81" />
		<line class="cls-1" x1="688.22" y1="1882.42" x2="699.91" y2="1875.8" />
		<line class="cls-1" x1="689.5" y1="1883.58" x2="687.9" y2="1880.78" />
		<line class="cls-1" x1="700.22" y1="1877.48" x2="698.62" y2="1874.68" />
		<line class="cls-1" x1="686.2" y1="1878.89" x2="697.89" y2="1872.27" />
		<line class="cls-1" x1="687.49" y1="1880.05" x2="685.89" y2="1877.25" />
		<line class="cls-1" x1="698.2" y1="1873.96" x2="696.6" y2="1871.15" />
		<line class="cls-1" x1="684.27" y1="1875.6" x2="695.96" y2="1868.98" />
		<line class="cls-1" x1="685.56" y1="1876.76" x2="683.95" y2="1873.96" />
		<line class="cls-1" x1="696.27" y1="1870.67" x2="694.67" y2="1867.86" />
		<line class="cls-1" x1="694.87" y1="1892.93" x2="693.27" y2="1890.13" />
		<line class="cls-1" x1="704.1" y1="1884.19" x2="702.5" y2="1881.39" />
		<line class="cls-1" x1="691.83" y1="1887.62" x2="690.23" y2="1884.81" />
		<line class="cls-1" x1="694.4" y1="1891.52" x2="703.26" y2="1882.85" />
		<line class="cls-1" x1="691.36" y1="1886.06" x2="703.33" y2="1882.81" />
		<line class="cls-1" x1="676.59" y1="1843.32" x2="690.02" y2="1843.27" />
		<line class="cls-1" x1="677.13" y1="1844.96" x2="677.11" y2="1841.73" />
		<line class="cls-1" x1="689.46" y1="1844.89" x2="689.44" y2="1841.66" />
		<line class="cls-1" x1="677.15" y1="1840.07" x2="677.12" y2="1836.84" />
		<line class="cls-1" x1="677.09" y1="1833.95" x2="677.07" y2="1830.72" />
		<line class="cls-1" x1="689.48" y1="1839.96" x2="689.45" y2="1836.74" />
		<line class="cls-1" x1="689.43" y1="1833.84" x2="689.4" y2="1830.61" />
		<line class="cls-1" x1="677.43" y1="1838.62" x2="689.16" y2="1832.02" />
		<line class="cls-1" x1="677.23" y1="1832.19" x2="689.31" y2="1838.62" />
		<line class="cls-1" x1="689.87" y1="1791.76" x2="691.48" y2="1788.96" />
		<line class="cls-1" x1="700.57" y1="1797.89" x2="702.18" y2="1795.09" />
		<line class="cls-1" x1="686.83" y1="1797.07" x2="688.44" y2="1794.27" />
		<line class="cls-1" x1="697.53" y1="1803.2" x2="699.14" y2="1800.4" />
		<line class="cls-1" x1="687.81" y1="1795.96" x2="701.26" y2="1796.19" />
		<line class="cls-1" x1="690.88" y1="1790.31" x2="698.06" y2="1801.96" />
		<line class="cls-1" x1="715.47" y1="1763.24" x2="718.26" y2="1761.63" />
		<line class="cls-1" x1="720.76" y1="1760.17" x2="723.56" y2="1758.55" />
		<line class="cls-1" x1="721.66" y1="1773.91" x2="724.45" y2="1772.29" />
		<line class="cls-1" x1="726.96" y1="1770.83" x2="729.75" y2="1769.22" />
		<line class="cls-1" x1="716.87" y1="1762.77" x2="728.41" y2="1769.71" />
		<line class="cls-1" x1="722.36" y1="1759.42" x2="722.75" y2="1773.1" />
		<line class="cls-1" x1="725.62" y1="1756.73" x2="732.31" y2="1768.38" />
		<line class="cls-1" x1="724.47" y1="1758.02" x2="727.26" y2="1756.4" />
		<line class="cls-1" x1="730.63" y1="1768.7" x2="733.42" y2="1767.08" />
		<line class="cls-1" x1="758.02" y1="1747.35" x2="761.25" y2="1747.34" />
		<line class="cls-1" x1="764.14" y1="1747.32" x2="767.37" y2="1747.32" />
		<line class="cls-1" x1="758.07" y1="1759.68" x2="761.29" y2="1759.67" />
		<line class="cls-1" x1="764.19" y1="1759.66" x2="767.42" y2="1759.65" />
		<line class="cls-1" x1="759.48" y1="1747.63" x2="766.01" y2="1759.4" />
		<line class="cls-1" x1="765.9" y1="1747.47" x2="759.41" y2="1759.52" />
		<line class="cls-1" x1="770.07" y1="1746.77" x2="770.06" y2="1760.2" />
		<line class="cls-1" x1="768.43" y1="1747.31" x2="771.65" y2="1747.3" />
		<line class="cls-1" x1="768.44" y1="1759.64" x2="771.67" y2="1759.63" />
		<line class="cls-1" x1="773.89" y1="1746.79" x2="773.87" y2="1760.22" />
		<line class="cls-1" x1="772.25" y1="1747.33" x2="775.47" y2="1747.32" />
		<line class="cls-1" x1="772.26" y1="1759.66" x2="775.49" y2="1759.65" />
		<line class="cls-1" x1="858.66" y1="1833.84" x2="845.23" y2="1833.79" />
		<line class="cls-1" x1="858.12" y1="1832.2" x2="858.12" y2="1835.42" />
		<line class="cls-1" x1="845.79" y1="1832.17" x2="845.79" y2="1835.4" />
		<line class="cls-1" x1="858.66" y1="1837.44" x2="845.23" y2="1837.39" />
		<line class="cls-1" x1="858.12" y1="1835.8" x2="858.12" y2="1839.02" />
		<line class="cls-1" x1="845.79" y1="1835.77" x2="845.79" y2="1839" />
		<line class="cls-1" x1="858.66" y1="1841.06" x2="845.23" y2="1841" />
		<line class="cls-1" x1="858.12" y1="1839.41" x2="858.12" y2="1842.64" />
		<line class="cls-1" x1="845.8" y1="1839.39" x2="845.8" y2="1842.62" />
		<line class="cls-1" x1="848.73" y1="1879.15" x2="837.1" y2="1872.41" />
		<line class="cls-1" x1="849.08" y1="1877.45" x2="847.47" y2="1880.25" />
		<line class="cls-1" x1="838.4" y1="1871.3" x2="836.79" y2="1874.1" />
		<line class="cls-1" x1="847.21" y1="1880.82" x2="845.6" y2="1883.62" />
		<line class="cls-1" x1="835.01" y1="1877.28" x2="833.4" y2="1880.08" />
		<line class="cls-1" x1="844.17" y1="1886.13" x2="842.56" y2="1888.93" />
		<line class="cls-1" x1="846.23" y1="1881.93" x2="834.27" y2="1878.68" />
		<line class="cls-1" x1="843.06" y1="1887.32" x2="834.21" y2="1878.64" />
	</g>
</svg>
